<svg xmlns="http://www.w3.org/2000/svg" xmlns:xlink="http://www.w3.org/1999/xlink" xmlns:lucid="lucid" width="1323.22" height="902.5"><g transform="translate(-236.77777800000013 -20)" lucid:page-tab-id="0_0"><path d="M360 105c0-2.76 2.24-5 5-5h292.22c2.76 0 5 2.24 5 5v110c0 2.76-2.24 5-5 5H365c-2.76 0-5-2.24-5-5z" stroke="#000" stroke-width="2" fill="#fff"/><use xlink:href="#a" transform="matrix(1,0,0,1,365,105) translate(18.674999999999997 58.6)"/><use xlink:href="#b" transform="matrix(1,0,0,1,365,105) translate(48.675 58.6)"/><use xlink:href="#c" transform="matrix(1,0,0,1,365,105) translate(89.625 58.6)"/><use xlink:href="#d" transform="matrix(1,0,0,1,365,105) translate(215.425 58.6)"/><path d="M360 262.5c0-2.76 2.24-5 5-5h292.22c2.76 0 5 2.24 5 5v110c0 2.76-2.24 5-5 5H365c-2.76 0-5-2.24-5-5z" stroke="#0c7cba" stroke-width="2" fill="#fff"/><use xlink:href="#e" transform="matrix(1,0,0,1,365,262.5) translate(96.64999999999999 58.6)"/><use xlink:href="#d" transform="matrix(1,0,0,1,365,262.5) translate(137.45 58.6)"/><path d="M340 645c0-2.76 2.24-5 5-5h170c2.76 0 5 2.24 5 5v110c0 2.76-2.24 5-5 5H345c-2.76 0-5-2.24-5-5z" stroke="#000" stroke-width="2" fill="#fff"/><use xlink:href="#f" transform="matrix(1,0,0,1,345,645) translate(35.125 47.8)"/><use xlink:href="#g" transform="matrix(1,0,0,1,345,645) translate(97.875 47.8)"/><use xlink:href="#h" transform="matrix(1,0,0,1,345,645) translate(48.05 69.4)"/><path d="M1180 365c0-2.76 2.24-5 5-5h127.78c2.76 0 5 2.24 5 5v130c0 2.76-2.24 5-5 5H1185c-2.76 0-5-2.24-5-5z" stroke="#000" stroke-width="2" fill="#fff"/><use xlink:href="#i" transform="matrix(1,0,0,1,1185,365) translate(34.075 47.5)"/><use xlink:href="#j" transform="matrix(1,0,0,1,1185,365) translate(29.124999999999993 69.10000000000001)"/><use xlink:href="#k" transform="matrix(1,0,0,1,1185,365) translate(40 90.70000000000002)"/><path d="M1015.56 605c0-2.76 2.23-5 5-5h292.22c2.76 0 5 2.24 5 5v220c0 2.76-2.24 5-5 5h-292.22c-2.77 0-5-2.24-5-5z" stroke="#000" stroke-width="2" fill="#fff"/><use xlink:href="#l" transform="matrix(1,0,0,1,1020.5555555555557,605) translate(29.174999999999997 102.80000000000001)"/><use xlink:href="#m" transform="matrix(1,0,0,1,1020.5555555555557,605) translate(158.925 102.80000000000001)"/><use xlink:href="#n" transform="matrix(1,0,0,1,1020.5555555555557,605) translate(13.174999999999983 124.4)"/><use xlink:href="#o" transform="matrix(1,0,0,1,1020.5555555555557,605) translate(75.12499999999999 124.4)"/><use xlink:href="#p" transform="matrix(1,0,0,1,1020.5555555555557,605) translate(149.025 124.4)"/><use xlink:href="#q" transform="matrix(1,0,0,1,1020.5555555555557,605) translate(184.025 124.4)"/><use xlink:href="#r" transform="matrix(1,0,0,1,1020.5555555555557,605) translate(242.925 124.4)"/><path d="M1248.9 501v79.76" stroke="#000" stroke-width="2" fill="none"/><path d="M1249.9 501h-2v-1h2zM1248.9 595.76l-4.65-14.26h9.27z"/><path d="M1248.9 599l-6.02-18.5h12.02zm-3.27-16.5l3.26 10.03 3.25-10.03z"/><path d="M720 262.5c0-2.76 2.24-5 5-5h292.22c2.76 0 5 2.24 5 5v110c0 2.76-2.24 5-5 5H725c-2.76 0-5-2.24-5-5z" stroke="#0c7cba" stroke-width="2" fill="#fff"/><use xlink:href="#s" transform="matrix(1,0,0,1,725,262.5) translate(78.1 58.6)"/><use xlink:href="#d" transform="matrix(1,0,0,1,725,262.5) translate(156 58.6)"/><path d="M720 105c0-2.76 2.24-5 5-5h292.22c2.76 0 5 2.24 5 5v110c0 2.76-2.24 5-5 5H725c-2.76 0-5-2.24-5-5z" stroke="#000" stroke-width="2" fill="#fff"/><use xlink:href="#t" transform="matrix(1,0,0,1,725,105) translate(39.8 58.6)"/><use xlink:href="#b" transform="matrix(1,0,0,1,725,105) translate(69.8 58.6)"/><use xlink:href="#u" transform="matrix(1,0,0,1,725,105) translate(110.75 58.6)"/><use xlink:href="#v" transform="matrix(1,0,0,1,725,105) translate(166.35000000000002 58.6)"/><use xlink:href="#d" transform="matrix(1,0,0,1,725,105) translate(194.3 58.6)"/><path d="M360 420c0-2.76 2.24-5 5-5h292.22c2.76 0 5 2.24 5 5v110c0 2.76-2.24 5-5 5H365c-2.76 0-5-2.24-5-5z" fill="#fff"/><path d="M362.84 415.68l.58-.43L365 415h3.02m4.03 0h6.05m4.03 0h6.05m4.03 0h6.05m4.03 0h6.05m4.03 0h6.05m4.04 0h6.04m4.03 0h6.06m4.03 0h6.04m4.03 0h6.04m4.04 0h6.05m4.02 0h6.05m4.03 0h6.04m4.03 0h6.05m4.03 0h6.05m4.03 0h6.04m4.03 0h6.05m4.03 0h6.05m4.03 0h6.04m4.03 0h6.05m4.03 0h6.06m4.03 0h6.03m4.03 0h6.05m4.04 0h6.05m4.02 0h6.04m4.03 0h6.04m4.03 0h6.05m4.03 0h6.04m4.02 0h6.05m4.03 0h3.02l2.2.72m2.12 2.12l.43.58.25 1.58v3m0 4v6m0 4v6m0 4v6m0 4v6m0 4v6m0 4v6m0 4v6m0 4v6m0 4v6m0 4v6m0 4v3l-.72 2.2m-2.1 2.12l-.6.43-1.58.25h-3.02m-4.03 0h-6.05m-4.03 0h-6.05m-4.03 0h-6.05m-4.03 0h-6.05m-4.04 0h-6.04m-4.03 0h-6.06m-4.03 0h-6.04m-4.03 0h-6.04m-4.04 0h-6.05m-4.02 0h-6.05m-4.03 0h-6.04m-4.03 0h-6.05m-4.03 0h-6.05m-4.03 0h-6.04m-4.03 0h-6.05m-4.03 0h-6.05m-4.03 0h-6.04m-4.03 0h-6.05m-4.03 0h-6.06m-4.03 0h-6.03m-4.03 0h-6.05m-4.04 0h-6.05m-4.02 0h-6.04m-4.03 0h-6.04m-4.03 0h-6.05m-4.03 0h-6.04m-4.02 0h-6.05m-4.03 0h-6.05m-4.03 0H365l-2.2-.72m-2.12-2.12l-.43-.58L360 530v-3m0-4v-6m0-4v-6m0-4v-6m0-4v-6m0-4v-6m0-4v-6m0-4v-6m0-4v-6m0-4v-6m0-4v-6m0-4v-3l.72-2.2" stroke="#000" stroke-width="2" fill="none"/><use xlink:href="#w" transform="matrix(1,0,0,1,365,420) translate(89.07499999999999 58.6)"/><use xlink:href="#d" transform="matrix(1,0,0,1,365,420) translate(145.02499999999998 58.6)"/><path d="M340 77.5h700v480H340z" stroke="#666" stroke-width="2" fill-opacity="0"/><path d="M720 420c0-2.76 2.24-5 5-5h292.22c2.76 0 5 2.24 5 5v110c0 2.76-2.24 5-5 5H725c-2.76 0-5-2.24-5-5z" fill="#fff"/><path d="M722.84 415.68l.58-.43L725 415h3.02m4.03 0h6.05m4.03 0h6.05m4.03 0h6.05m4.03 0h6.05m4.03 0h6.05m4.04 0h6.04m4.03 0h6.06m4.03 0h6.04m4.03 0h6.04m4.04 0h6.05m4.02 0h6.05m4.03 0h6.04m4.03 0h6.05m4.03 0h6.05m4.03 0h6.04m4.03 0h6.05m4.03 0h6.05m4.03 0h6.04m4.03 0h6.05m4.03 0h6.06m4.03 0h6.03m4.03 0h6.05m4.04 0h6.05m4.02 0h6.04m4.03 0h6.04m4.03 0h6.05m4.03 0h6.04m4.02 0h6.05m4.03 0h3.02l2.2.72m2.12 2.12l.43.58.25 1.58v3m0 4v6m0 4v6m0 4v6m0 4v6m0 4v6m0 4v6m0 4v6m0 4v6m0 4v6m0 4v6m0 4v3l-.72 2.2m-2.1 2.12l-.6.43-1.58.25h-3.02m-4.03 0h-6.05m-4.03 0h-6.05m-4.03 0h-6.05m-4.03 0h-6.05m-4.04 0h-6.04m-4.03 0h-6.06m-4.03 0h-6.04m-4.03 0h-6.04m-4.04 0h-6.05m-4.02 0h-6.05m-4.03 0h-6.04m-4.03 0h-6.05m-4.03 0h-6.05m-4.03 0h-6.04m-4.03 0h-6.05m-4.03 0h-6.05m-4.03 0h-6.04m-4.03 0h-6.05m-4.03 0h-6.06m-4.03 0h-6.03m-4.03 0h-6.05m-4.04 0h-6.05m-4.02 0h-6.04m-4.03 0h-6.04m-4.03 0h-6.05m-4.03 0h-6.04m-4.02 0h-6.05m-4.03 0h-6.05m-4.03 0H725l-2.2-.72m-2.12-2.12l-.43-.58L720 530v-3m0-4v-6m0-4v-6m0-4v-6m0-4v-6m0-4v-6m0-4v-6m0-4v-6m0-4v-6m0-4v-6m0-4v-6m0-4v-3l.72-2.2" stroke="#000" stroke-width="2" fill="none"/><use xlink:href="#x" transform="matrix(1,0,0,1,725,420) translate(101.6 58.6)"/><use xlink:href="#d" transform="matrix(1,0,0,1,725,420) translate(132.5 58.6)"/><path d="M1041 259.33h207.9v81.43" stroke="#000" stroke-width="2" fill="none"/><path d="M1041 260.33h-1v-2h1zM1248.9 355.76l-4.65-14.26h9.27z"/><path d="M1248.9 359l-6.02-18.5h12.02zm-3.27-16.5l3.26 10.03 3.25-10.03z"/><path d="M871.1 536v126h125.22" stroke="#000" stroke-width="2" fill="none"/><path d="M872.1 536h-2v-1h2zM1011.32 662l-14.27 4.64v-9.28z"/><path d="M1014.56 662l-18.5 6v-12zm-16.5 3.26l10.02-3.26-10.03-3.26z"/><path d="M1108 580.76V345.33h-66.54" stroke="#0c7cba" stroke-width="2" fill="none"/><path d="M1108 595.76l-4.64-14.26h9.28z" fill="#0c7cba"/><path d="M1108 599l-6-18.5h12zm-3.26-16.5l3.26 10.03 3.26-10.03zM1040.72 349.97l-14.26-4.64 14.26-4.63z" fill="#0c7cba"/><path d="M1041.72 351.35l-18.5-6.02 18.5-6zm-12.03-6.02l10.02 3.26v-6.53z" fill="#0c7cba"/><path d="M1236.78 160h-195.32" stroke="#000" stroke-width="2" fill="none"/><path d="M1237.78 160l.03 1h-1.02v-2h1.06zM1040.72 164.64l-14.26-4.64 14.26-4.64z"/><path d="M1041.72 166l-18.5-6 18.5-6zm-12.03-6l10.02 3.26v-6.52z"/><path d="M625.33 554.24v218.43h371" stroke="#000" stroke-width="2" fill="none"/><path d="M629.97 553.5h-9.27l4.63-14.26z"/><path d="M631.35 554.5h-12.03l6-18.5zm-9.28-2h6.52l-3.27-10.03zM1011.32 772.67l-14.27 4.63v-9.27z"/><path d="M1014.56 772.67l-18.5 6v-12.02zm-16.5 3.26l10.02-3.26-10.03-3.26z"/><path d="M647.78 723.75h80v60h-80z" stroke="#000" stroke-opacity="0" stroke-width="2" fill="#fff" fill-opacity="0"/><use xlink:href="#y" transform="matrix(1,0,0,1,652.7777777777778,728.75) translate(0 28.6)"/><use xlink:href="#z" transform="matrix(1,0,0,1,652.7777777777778,728.75) translate(5 28.6)"/><path d="M720 663.75h80v60h-80z" stroke="#000" stroke-opacity="0" stroke-width="2" fill="#fff" fill-opacity="0"/><use xlink:href="#A" transform="matrix(1,0,0,1,725,668.75) translate(0 28.6)"/><path d="M880 603.75h80v60h-80z" stroke="#000" stroke-opacity="0" stroke-width="2" fill="#fff" fill-opacity="0"/><use xlink:href="#B" transform="matrix(1,0,0,1,885,608.75) translate(0 28.6)"/><path d="M430 639v-59.03" stroke="#000" stroke-width="4" fill="none"/><path d="M432 640h-4v-1h4zM434.64 579.24h-9.28l4.64-14.27z"/><path d="M437.4 581.24h-14.8l7.4-22.74zm-9.28-4h3.76l-1.88-5.8z"/><path d="M430 842.5v-60.03" stroke="#000" stroke-width="4" fill="none"/><path/><path d="M434.64 781.74h-9.28l4.64-14.27z"/><path d="M437.4 783.74h-14.8L430 761zm-9.28-4h3.76l-1.88-5.8z"/><path d="M395 842.5h70v60h-70z" stroke="#000" stroke-opacity="0" stroke-width="2" fill="#fff" fill-opacity="0"/><use xlink:href="#y" transform="matrix(1,0,0,1,400,847.5) translate(9 28.6)"/><use xlink:href="#C" transform="matrix(1,0,0,1,400,847.5) translate(14 28.6)"/><path d="M1166.67 831v39h-624V576.74" fill="none"/><path d="M1166.67 831v3m0 3.97v5.98m0 3.98v5.98m0 4v5.97m0 4V870h-3.84m-3.98 0h-5.98m-3.98 0h-6m-3.97 0h-5.98m-3.98 0H1123m-4 0h-5.97m-4 0h-5.96m-4 0h-5.96m-3.98 0h-5.97m-4 0h-5.97m-3.98 0h-5.98m-3.98 0h-5.98m-3.98 0h-5.98m-3.98 0h-5.98m-3.98 0h-5.98m-4 0h-5.96m-4 0h-5.96m-4 0h-5.96m-4 0h-5.97m-3.98 0h-5.98m-3.98 0h-6m-3.97 0h-5.98m-3.98 0h-5.98m-4 0h-5.97m-4 0h-5.96m-4 0h-5.96m-3.98 0h-5.97m-4 0h-5.97m-3.98 0h-5.98m-3.98 0h-5.98m-3.98 0H864m-3.98 0h-5.98m-3.98 0h-5.98m-4 0h-5.96m-4 0h-5.96m-4 0h-5.96m-4 0h-5.96m-4 0h-5.97m-3.98 0h-6m-3.97 0h-5.98m-3.98 0h-5.98m-4 0h-5.97m-3.98 0h-5.98m-4 0h-5.96m-3.98 0h-5.97m-4 0h-5.96m-4 0h-5.98m-3.98 0h-5.98m-3.98 0h-5.98m-3.98 0h-5.98m-3.98 0h-5.98m-3.98 0h-5.98m-4 0h-5.96m-4 0h-5.96m-4 0h-5.96m-4 0h-5.97m-3.98 0h-6m-3.97 0h-5.98m-3.98 0h-5.98m-4 0h-5.97m-3.98 0h-5.98m-4 0h-5.96m-3.98 0h-5.97m-2.58-1.4v-5.98m0-4v-5.96m0-4v-5.96m0-4v-5.96m0-4v-5.97m0-3.98v-6m0-3.97v-5.98m0-3.98v-5.98m0-4v-5.97m0-3.98v-5.98m0-4v-5.96m0-3.98v-5.97m0-4v-5.96m0-4v-5.97m0-4v-5.97m0-3.98v-5.98m0-3.98v-5.98m0-3.98v-5.98m0-3.98v-5.98m0-3.98v-5.98m0-4v-5.96m0-4v-5.96m0-4v-5.96m0-4v-5.97m0-3.97v-5.98m0-3.98v-5.98m0-4v-5.97m0-3.98v-5.98m0-3.98v-6m0-3.98v-2.98" stroke="#000" stroke-width="2" fill="none"/><path d="M1167.67 831h-2v-1h2zM547.3 576h-9.27l4.64-14.26z"/><path d="M548.68 577h-12.03l6.02-18.5zm-9.27-2h6.53l-3.26-10.03z"/><path d="M700 784.5h282.22v118H700z" stroke="#000" stroke-opacity="0" stroke-width="2" fill="#fff" fill-opacity="0"/><use xlink:href="#y" transform="matrix(1,0,0,1,705,789.5) translate(8.700000000000003 58.1)"/><use xlink:href="#D" transform="matrix(1,0,0,1,705,789.5) translate(13.700000000000003 58.1)"/><use xlink:href="#E" transform="matrix(1,0,0,1,705,789.5) translate(94.55000000000001 58.1)"/><use xlink:href="#F" transform="matrix(1,0,0,1,705,789.5) translate(150.45 58.1)"/><use xlink:href="#G" transform="matrix(1,0,0,1,705,789.5) translate(210.39999999999998 58.1)"/><path d="M719 317.5h-37.54" stroke="#0c7cba" stroke-width="2" fill="none"/><path d="M720 318.5h-1v-2h1zM680.72 322.14l-14.26-4.64 14.26-4.64z" fill="#0c7cba"/><path d="M681.72 323.5l-18.5-6 18.5-6zm-12.03-6l10.02 3.26v-6.52z" fill="#0c7cba"/><path d="M1014.56 715H700V160h-18.54" stroke="#000" stroke-width="2" fill="none"/><path d="M1015.56 716h-1v-2h1zM680.72 164.64L666.46 160l14.26-4.64z"/><path d="M681.72 166l-18.5-6 18.5-6zm-12.03-6l10.02 3.26v-6.52z"/><path d="M1050 263.6h170V360h-170z" stroke="#000" stroke-opacity="0" stroke-width="2" fill="#fff" fill-opacity="0"/><g><use xlink:href="#H" transform="matrix(1,0,0,1,1055,268.59999999999997) translate(0 36.3)"/><use xlink:href="#I" transform="matrix(1,0,0,1,1055,268.59999999999997) translate(77.5 36.3)"/><use xlink:href="#J" transform="matrix(1,0,0,1,1055,268.59999999999997) translate(97.5 36.3)"/><use xlink:href="#K" transform="matrix(1,0,0,1,1055,268.59999999999997) translate(0 57.9)"/><use xlink:href="#L" transform="matrix(1,0,0,1,1055,268.59999999999997) translate(41.900000000000006 57.9)"/><use xlink:href="#M" transform="matrix(1,0,0,1,1055,268.59999999999997) translate(66.9 57.9)"/></g><g fill="none"><path d="M1140 60h-40V40h40z"/><path d="M1140 40l-20 20-20-20" stroke="#000" stroke-width="2"/></g><path d="M1120 100V40" stroke="#000" stroke-width="2" fill="none"/><g fill="none"><path d="M300 100h-40V80h40z"/><path d="M300 80l-20 20-20-20" stroke="#000" stroke-width="2"/></g><path d="M280 140V80M359 160h-79v-20" stroke="#000" stroke-width="2" fill="none"/><path d="M360 161h-1v-2h1z"/><path d="M1120 100v30h-96.78" stroke="#000" stroke-width="2" fill="none"/><path d="M1023.22 131h-1v-2h1z"/><g fill="none"><path d="M1100 420h-40v-20h40z"/><path d="M1100 400l-20 20-20-20" stroke="#000" stroke-width="2"/></g><path d="M1080 460v-60M1023.22 475H1080v-15" stroke="#000" stroke-width="2" fill="none"/><path d="M1023.22 476h-1v-2h1z"/><g fill="none"><path d="M296.78 420h-40v-20h40z"/><path d="M296.78 400l-20 20-20-20" stroke="#000" stroke-width="2"/></g><path d="M276.78 460v-60M359 480h-82.22v-20" stroke="#000" stroke-width="2" fill="none"/><path d="M360 481h-1v-2h1z"/><path d="M1320.74 715h117.3" stroke="#000" stroke-width="2" fill="none"/><path d="M1338.47 705.68L1322.7 715l15.77 9.32-1.02 1.72-18.67-11.04 18.67-11.04zM1440 715l-18.67 11.04-1.02-1.72 15.77-9.32-15.76-9.32 1.03-1.72z"/><path d="M1440 688.4h100v53.2h-100z" stroke="#000" stroke-opacity="0" stroke-width="2" fill="#fff" fill-opacity="0"/><g><use xlink:href="#N" transform="matrix(1,0,0,1,1445,693.4) translate(0 25.6)"/></g><path d="M1317.78 160c0 22.1-17.9 40-40 40s-40-17.9-40-40 17.9-40 40-40 40 17.9 40 40z" stroke="#000" stroke-width="2" fill="#fff"/><g><use xlink:href="#O" transform="matrix(1,0,0,1,1242.7777777777778,125) translate(20.5 27.799999999999997)"/><use xlink:href="#P" transform="matrix(1,0,0,1,1242.7777777777778,125) translate(10.5 49.4)"/></g><defs><path d="M101-251c82-7 93 87 43 132L82-64C71-53 59-42 53-27h129V0H18c2-99 128-94 128-182 0-28-16-43-45-43s-46 15-49 41l-32-3c6-41 34-60 81-64" id="Q"/><path d="M33 0v-38h34V0H33" id="R"/><path d="M155-56V0h-30v-56H8v-25l114-167h33v167h35v25h-35zm-30-156c-27 46-58 90-88 131h88v-131" id="S"/><g id="a"><use transform="matrix(0.05,0,0,0.05,0,0)" xlink:href="#Q"/><use transform="matrix(0.05,0,0,0.05,10,0)" xlink:href="#R"/><use transform="matrix(0.05,0,0,0.05,15,0)" xlink:href="#S"/></g><path d="M143 4C61 4 22-44 18-125c-5-107 100-154 193-111 17 8 29 25 37 43l-32 9c-13-25-37-40-76-40-61 0-88 39-88 99 0 61 29 100 91 101 35 0 62-11 79-27v-45h-74v-28h105v86C228-13 192 4 143 4" id="T"/><path d="M197 0v-115H63V0H30v-248h33v105h134v-105h34V0h-34" id="U"/><path d="M9 0v-24l116-142H16v-24h144v24L44-24h123V0H9" id="V"/><g id="b"><use transform="matrix(0.05,0,0,0.05,0,0)" xlink:href="#T"/><use transform="matrix(0.05,0,0,0.05,14,0)" xlink:href="#U"/><use transform="matrix(0.05,0,0,0.05,26.950000000000003,0)" xlink:href="#V"/></g><path d="M96-169c-40 0-48 33-48 73s9 75 48 75c24 0 41-14 43-38l32 2c-6 37-31 61-74 61-59 0-76-41-82-99-10-93 101-131 147-64 4 7 5 14 7 22l-32 3c-4-21-16-35-41-35" id="W"/><path d="M100-194c62-1 85 37 85 99 1 63-27 99-86 99S16-35 15-95c0-66 28-99 85-99zM99-20c44 1 53-31 53-75 0-43-8-75-51-75s-53 32-53 75 10 74 51 75" id="X"/><path d="M210-169c-67 3-38 105-44 169h-31v-121c0-29-5-50-35-48C34-165 62-65 56 0H25l-1-190h30c1 10-1 24 2 32 10-44 99-50 107 0 11-21 27-35 58-36 85-2 47 119 55 194h-31v-121c0-29-5-49-35-48" id="Y"/><path d="M84 4C-5 8 30-112 23-190h32v120c0 31 7 50 39 49 72-2 45-101 50-169h31l1 190h-30c-1-10 1-25-2-33-11 22-28 36-60 37" id="Z"/><path d="M117-194c89-4 53 116 60 194h-32v-121c0-31-8-49-39-48C34-167 62-67 57 0H25l-1-190h30c1 10-1 24 2 32 11-22 29-35 61-36" id="aa"/><path d="M24-231v-30h32v30H24zM24 0v-190h32V0H24" id="ab"/><path d="M141-36C126-15 110 5 73 4 37 3 15-17 15-53c-1-64 63-63 125-63 3-35-9-54-41-54-24 1-41 7-42 31l-33-3c5-37 33-52 76-52 45 0 72 20 72 64v82c-1 20 7 32 28 27v20c-31 9-61-2-59-35zM48-53c0 20 12 33 32 33 41-3 63-29 60-74-43 2-92-5-92 41" id="ac"/><path d="M59-47c-2 24 18 29 38 22v24C64 9 27 4 27-40v-127H5v-23h24l9-43h21v43h35v23H59v120" id="ad"/><g id="c"><use transform="matrix(0.05,0,0,0.05,0,0)" xlink:href="#W"/><use transform="matrix(0.05,0,0,0.05,9,0)" xlink:href="#X"/><use transform="matrix(0.05,0,0,0.05,19,0)" xlink:href="#Y"/><use transform="matrix(0.05,0,0,0.05,33.95,0)" xlink:href="#Y"/><use transform="matrix(0.05,0,0,0.05,48.900000000000006,0)" xlink:href="#Z"/><use transform="matrix(0.05,0,0,0.05,58.900000000000006,0)" xlink:href="#aa"/><use transform="matrix(0.05,0,0,0.05,68.9,0)" xlink:href="#ab"/><use transform="matrix(0.05,0,0,0.05,72.85000000000001,0)" xlink:href="#W"/><use transform="matrix(0.05,0,0,0.05,81.85000000000001,0)" xlink:href="#ac"/><use transform="matrix(0.05,0,0,0.05,91.85000000000001,0)" xlink:href="#ad"/><use transform="matrix(0.05,0,0,0.05,96.85000000000001,0)" xlink:href="#ab"/><use transform="matrix(0.05,0,0,0.05,100.80000000000001,0)" xlink:href="#X"/><use transform="matrix(0.05,0,0,0.05,110.80000000000001,0)" xlink:href="#aa"/></g><path d="M85-194c31 0 48 13 60 33l-1-100h32l1 261h-30c-2-10 0-23-3-31C134-8 116 4 85 4 32 4 16-35 15-94c0-66 23-100 70-100zm9 24c-40 0-46 34-46 75 0 40 6 74 45 74 42 0 51-32 51-76 0-42-9-74-50-73" id="ae"/><path d="M24 0v-261h32V0H24" id="af"/><path d="M100-194c63 0 86 42 84 106H49c0 40 14 67 53 68 26 1 43-12 49-29l28 8c-11 28-37 45-77 45C44 4 14-33 15-96c1-61 26-98 85-98zm52 81c6-60-76-77-97-28-3 7-6 17-6 28h103" id="ag"/><g id="d"><use transform="matrix(0.05,0,0,0.05,0,0)" xlink:href="#Y"/><use transform="matrix(0.05,0,0,0.05,14.950000000000001,0)" xlink:href="#X"/><use transform="matrix(0.05,0,0,0.05,24.950000000000003,0)" xlink:href="#ae"/><use transform="matrix(0.05,0,0,0.05,34.95,0)" xlink:href="#Z"/><use transform="matrix(0.05,0,0,0.05,44.95,0)" xlink:href="#af"/><use transform="matrix(0.05,0,0,0.05,48.900000000000006,0)" xlink:href="#ag"/></g><path d="M266 0h-40l-56-210L115 0H75L2-248h35L96-30l15-64 43-154h32l59 218 59-218h35" id="ah"/><path d="M63-220v92h138v28H63V0H30v-248h175v28H63" id="ai"/><g id="e"><use transform="matrix(0.05,0,0,0.05,0,0)" xlink:href="#ah"/><use transform="matrix(0.05,0,0,0.05,16.95,0)" xlink:href="#ab"/><use transform="matrix(0.05,0,0,0.05,20.9,0)" xlink:href="#ai"/><use transform="matrix(0.05,0,0,0.05,31.85,0)" xlink:href="#ab"/></g><path d="M30-248c118-7 216 8 213 122C240-48 200 0 122 0H30v-248zM63-27c89 8 146-16 146-99s-60-101-146-95v194" id="aj"/><path d="M212-179c-10-28-35-45-73-45-59 0-87 40-87 99 0 60 29 101 89 101 43 0 62-24 78-52l27 14C228-24 195 4 139 4 59 4 22-46 18-125c-6-104 99-153 187-111 19 9 31 26 39 46" id="ak"/><path d="M16-82v-28h88v28H16" id="al"/><g id="f"><use transform="matrix(0.05,0,0,0.05,0,0)" xlink:href="#aj"/><use transform="matrix(0.05,0,0,0.05,12.950000000000001,0)" xlink:href="#ak"/><use transform="matrix(0.05,0,0,0.05,25.900000000000002,0)" xlink:href="#al"/><use transform="matrix(0.05,0,0,0.05,31.85,0)" xlink:href="#aj"/><use transform="matrix(0.05,0,0,0.05,44.800000000000004,0)" xlink:href="#ak"/></g><path d="M115-194c53 0 69 39 70 98 0 66-23 100-70 100C84 3 66-7 56-30L54 0H23l1-261h32v101c10-23 28-34 59-34zm-8 174c40 0 45-34 45-75 0-40-5-75-45-74-42 0-51 32-51 76 0 43 10 73 51 73" id="am"/><path d="M143 0L79-87 56-68V0H24v-261h32v163l83-92h37l-77 82L181 0h-38" id="an"/><g id="g"><use transform="matrix(0.05,0,0,0.05,0,0)" xlink:href="#am"/><use transform="matrix(0.05,0,0,0.05,10,0)" xlink:href="#Z"/><use transform="matrix(0.05,0,0,0.05,20,0)" xlink:href="#W"/><use transform="matrix(0.05,0,0,0.05,29,0)" xlink:href="#an"/></g><path d="M108 0H70L1-190h34L89-25l56-165h34" id="ao"/><path d="M114-163C36-179 61-72 57 0H25l-1-190h30c1 12-1 29 2 39 6-27 23-49 58-41v29" id="ap"/><g id="h"><use transform="matrix(0.05,0,0,0.05,0,0)" xlink:href="#W"/><use transform="matrix(0.05,0,0,0.05,9,0)" xlink:href="#X"/><use transform="matrix(0.05,0,0,0.05,19,0)" xlink:href="#aa"/><use transform="matrix(0.05,0,0,0.05,29,0)" xlink:href="#ao"/><use transform="matrix(0.05,0,0,0.05,38,0)" xlink:href="#ag"/><use transform="matrix(0.05,0,0,0.05,48,0)" xlink:href="#ap"/><use transform="matrix(0.05,0,0,0.05,53.95,0)" xlink:href="#ad"/><use transform="matrix(0.05,0,0,0.05,58.95,0)" xlink:href="#ag"/><use transform="matrix(0.05,0,0,0.05,68.95,0)" xlink:href="#ap"/></g><g id="i"><use transform="matrix(0.05,0,0,0.05,0,0)" xlink:href="#ak"/><use transform="matrix(0.05,0,0,0.05,12.950000000000001,0)" xlink:href="#Z"/><use transform="matrix(0.05,0,0,0.05,22.950000000000003,0)" xlink:href="#ap"/><use transform="matrix(0.05,0,0,0.05,28.900000000000002,0)" xlink:href="#ap"/><use transform="matrix(0.05,0,0,0.05,34.85,0)" xlink:href="#ag"/><use transform="matrix(0.05,0,0,0.05,44.85,0)" xlink:href="#aa"/><use transform="matrix(0.05,0,0,0.05,54.85,0)" xlink:href="#ad"/></g><path d="M206 0h-36l-40-164L89 0H53L-1-190h32L70-26l43-164h34l41 164 42-164h31" id="aq"/><g id="j"><use transform="matrix(0.05,0,0,0.05,0,0)" xlink:href="#aq"/><use transform="matrix(0.05,0,0,0.05,12.950000000000001,0)" xlink:href="#ab"/><use transform="matrix(0.05,0,0,0.05,16.900000000000002,0)" xlink:href="#ae"/><use transform="matrix(0.05,0,0,0.05,26.900000000000002,0)" xlink:href="#ap"/><use transform="matrix(0.05,0,0,0.05,32.85,0)" xlink:href="#ac"/><use transform="matrix(0.05,0,0,0.05,42.85,0)" xlink:href="#aq"/><use transform="matrix(0.05,0,0,0.05,55.800000000000004,0)" xlink:href="#ac"/><use transform="matrix(0.05,0,0,0.05,65.80000000000001,0)" xlink:href="#af"/></g><path d="M135-143c-3-34-86-38-87 0 15 53 115 12 119 90S17 21 10-45l28-5c4 36 97 45 98 0-10-56-113-15-118-90-4-57 82-63 122-42 12 7 21 19 24 35" id="ar"/><g id="k"><use transform="matrix(0.05,0,0,0.05,0,0)" xlink:href="#ar"/><use transform="matrix(0.05,0,0,0.05,9,0)" xlink:href="#ag"/><use transform="matrix(0.05,0,0,0.05,19,0)" xlink:href="#aa"/><use transform="matrix(0.05,0,0,0.05,29,0)" xlink:href="#ar"/><use transform="matrix(0.05,0,0,0.05,38,0)" xlink:href="#ag"/></g><g id="l"><use transform="matrix(0.05,0,0,0.05,0,0)" xlink:href="#ak"/><use transform="matrix(0.05,0,0,0.05,12.950000000000001,0)" xlink:href="#X"/><use transform="matrix(0.05,0,0,0.05,22.950000000000003,0)" xlink:href="#Y"/><use transform="matrix(0.05,0,0,0.05,37.900000000000006,0)" xlink:href="#Y"/><use transform="matrix(0.05,0,0,0.05,52.85,0)" xlink:href="#Z"/><use transform="matrix(0.05,0,0,0.05,62.85,0)" xlink:href="#aa"/><use transform="matrix(0.05,0,0,0.05,72.85000000000001,0)" xlink:href="#ab"/><use transform="matrix(0.05,0,0,0.05,76.80000000000001,0)" xlink:href="#W"/><use transform="matrix(0.05,0,0,0.05,85.80000000000001,0)" xlink:href="#ac"/><use transform="matrix(0.05,0,0,0.05,95.80000000000001,0)" xlink:href="#ad"/><use transform="matrix(0.05,0,0,0.05,100.80000000000001,0)" xlink:href="#ab"/><use transform="matrix(0.05,0,0,0.05,104.75,0)" xlink:href="#X"/><use transform="matrix(0.05,0,0,0.05,114.75,0)" xlink:href="#aa"/></g><path d="M177-190C167-65 218 103 67 71c-23-6-38-20-44-43l32-5c15 47 100 32 89-28v-30C133-14 115 1 83 1 29 1 15-40 15-95c0-56 16-97 71-98 29-1 48 16 59 35 1-10 0-23 2-32h30zM94-22c36 0 50-32 50-73 0-42-14-75-50-75-39 0-46 34-46 75s6 73 46 73" id="as"/><g id="m"><use transform="matrix(0.05,0,0,0.05,0,0)" xlink:href="#Y"/><use transform="matrix(0.05,0,0,0.05,14.950000000000001,0)" xlink:href="#ac"/><use transform="matrix(0.05,0,0,0.05,24.950000000000003,0)" xlink:href="#aa"/><use transform="matrix(0.05,0,0,0.05,34.95,0)" xlink:href="#ac"/><use transform="matrix(0.05,0,0,0.05,44.95,0)" xlink:href="#as"/><use transform="matrix(0.05,0,0,0.05,54.95,0)" xlink:href="#ag"/><use transform="matrix(0.05,0,0,0.05,64.95,0)" xlink:href="#Y"/><use transform="matrix(0.05,0,0,0.05,79.9,0)" xlink:href="#ag"/><use transform="matrix(0.05,0,0,0.05,89.9,0)" xlink:href="#aa"/><use transform="matrix(0.05,0,0,0.05,99.9,0)" xlink:href="#ad"/></g><path d="M179-190L93 31C79 59 56 82 12 73V49c39 6 53-20 64-50L1-190h34L92-34l54-156h33" id="at"/><g id="n"><use transform="matrix(0.05,0,0,0.05,0,0)" xlink:href="#ar"/><use transform="matrix(0.05,0,0,0.05,9,0)" xlink:href="#at"/><use transform="matrix(0.05,0,0,0.05,18,0)" xlink:href="#ar"/><use transform="matrix(0.05,0,0,0.05,27,0)" xlink:href="#ad"/><use transform="matrix(0.05,0,0,0.05,32,0)" xlink:href="#ag"/><use transform="matrix(0.05,0,0,0.05,42,0)" xlink:href="#Y"/></g><path d="M101-234c-31-9-42 10-38 44h38v23H63V0H32v-167H5v-23h27c-7-52 17-82 69-68v24" id="au"/><g id="o"><use transform="matrix(0.05,0,0,0.05,0,0)" xlink:href="#ab"/><use transform="matrix(0.05,0,0,0.05,3.95,0)" xlink:href="#aa"/><use transform="matrix(0.05,0,0,0.05,13.949999999999998,0)" xlink:href="#ad"/><use transform="matrix(0.05,0,0,0.05,18.95,0)" xlink:href="#ag"/><use transform="matrix(0.05,0,0,0.05,28.950000000000003,0)" xlink:href="#ap"/><use transform="matrix(0.05,0,0,0.05,34.9,0)" xlink:href="#au"/><use transform="matrix(0.05,0,0,0.05,39.9,0)" xlink:href="#ac"/><use transform="matrix(0.05,0,0,0.05,49.9,0)" xlink:href="#W"/><use transform="matrix(0.05,0,0,0.05,58.900000000000006,0)" xlink:href="#ag"/></g><g id="p"><use transform="matrix(0.05,0,0,0.05,0,0)" xlink:href="#ac"/><use transform="matrix(0.05,0,0,0.05,10,0)" xlink:href="#aa"/><use transform="matrix(0.05,0,0,0.05,20,0)" xlink:href="#ae"/></g><g id="q"><use transform="matrix(0.05,0,0,0.05,0,0)" xlink:href="#W"/><use transform="matrix(0.05,0,0,0.05,9,0)" xlink:href="#X"/><use transform="matrix(0.05,0,0,0.05,19,0)" xlink:href="#aa"/><use transform="matrix(0.05,0,0,0.05,29,0)" xlink:href="#ad"/><use transform="matrix(0.05,0,0,0.05,34,0)" xlink:href="#ap"/><use transform="matrix(0.05,0,0,0.05,39.95,0)" xlink:href="#X"/><use transform="matrix(0.05,0,0,0.05,49.95,0)" xlink:href="#af"/></g><g id="r"><use transform="matrix(0.05,0,0,0.05,0,0)" xlink:href="#af"/><use transform="matrix(0.05,0,0,0.05,3.95,0)" xlink:href="#X"/><use transform="matrix(0.05,0,0,0.05,13.949999999999998,0)" xlink:href="#as"/><use transform="matrix(0.05,0,0,0.05,23.95,0)" xlink:href="#ab"/><use transform="matrix(0.05,0,0,0.05,27.899999999999995,0)" xlink:href="#W"/></g><path d="M160-131c35 5 61 23 61 61C221 17 115-2 30 0v-248c76 3 177-17 177 60 0 33-19 50-47 57zm-97-11c50-1 110 9 110-42 0-47-63-36-110-37v79zm0 115c55-2 124 14 124-45 0-56-70-42-124-44v89" id="av"/><path d="M127-220V0H93v-220H8v-28h204v28h-85" id="aw"/><path d="M0 4l72-265h28L28 4H0" id="ax"/><path d="M30 0v-248h33v221h125V0H30" id="ay"/><path d="M30 0v-248h187v28H63v79h144v27H63v87h162V0H30" id="az"/><g id="s"><use transform="matrix(0.05,0,0,0.05,0,0)" xlink:href="#av"/><use transform="matrix(0.05,0,0,0.05,12,0)" xlink:href="#aw"/><use transform="matrix(0.05,0,0,0.05,22.950000000000003,0)" xlink:href="#ax"/><use transform="matrix(0.05,0,0,0.05,27.950000000000003,0)" xlink:href="#av"/><use transform="matrix(0.05,0,0,0.05,39.95,0)" xlink:href="#aw"/><use transform="matrix(0.05,0,0,0.05,50.900000000000006,0)" xlink:href="#ay"/><use transform="matrix(0.05,0,0,0.05,60.900000000000006,0)" xlink:href="#az"/></g><path d="M54-142c48-35 137-8 131 61C196 18 31 33 14-55l32-4c7 23 22 37 52 37 35-1 51-22 54-58 4-55-73-65-99-34H22l8-134h141v27H59" id="aA"/><path d="M101-251c68 0 85 55 85 127S166 4 100 4C33 4 14-52 14-124c0-73 17-127 87-127zm-1 229c47 0 54-49 54-102s-4-102-53-102c-51 0-55 48-55 102 0 53 5 102 54 102" id="aB"/><g id="t"><use transform="matrix(0.05,0,0,0.05,0,0)" xlink:href="#aA"/><use transform="matrix(0.05,0,0,0.05,10,0)" xlink:href="#R"/><use transform="matrix(0.05,0,0,0.05,15,0)" xlink:href="#aB"/></g><path d="M137 0h-34L2-248h35l83 218 83-218h36" id="aC"/><g id="u"><use transform="matrix(0.05,0,0,0.05,0,0)" xlink:href="#aC"/><use transform="matrix(0.05,0,0,0.05,11.65,0)" xlink:href="#ab"/><use transform="matrix(0.05,0,0,0.05,15.600000000000001,0)" xlink:href="#ae"/><use transform="matrix(0.05,0,0,0.05,25.6,0)" xlink:href="#ag"/><use transform="matrix(0.05,0,0,0.05,35.6,0)" xlink:href="#X"/></g><path d="M195 0l-74-108L45 0H8l94-129-87-119h37l69 98 67-98h37l-84 118L233 0h-38" id="aD"/><g id="v"><use transform="matrix(0.05,0,0,0.05,0,0)" xlink:href="#aw"/><use transform="matrix(0.05,0,0,0.05,10.950000000000001,0)" xlink:href="#aD"/></g><path d="M30-248c87 1 191-15 191 75 0 78-77 80-158 76V0H30v-248zm33 125c57 0 124 11 124-50 0-59-68-47-124-48v98" id="aE"/><path d="M233-177c-1 41-23 64-60 70L243 0h-38l-65-103H63V0H30v-248c88 3 205-21 203 71zM63-129c60-2 137 13 137-47 0-61-80-42-137-45v92" id="aF"/><path d="M185-189c-5-48-123-54-124 2 14 75 158 14 163 119 3 78-121 87-175 55-17-10-28-26-33-46l33-7c5 56 141 63 141-1 0-78-155-14-162-118-5-82 145-84 179-34 5 7 8 16 11 25" id="aG"/><g id="w"><use transform="matrix(0.05,0,0,0.05,0,0)" xlink:href="#T"/><use transform="matrix(0.05,0,0,0.05,14,0)" xlink:href="#aE"/><use transform="matrix(0.05,0,0,0.05,26,0)" xlink:href="#aF"/><use transform="matrix(0.05,0,0,0.05,38.95,0)" xlink:href="#aG"/></g><g id="x"><use transform="matrix(0.05,0,0,0.05,0,0)" xlink:href="#aF"/><use transform="matrix(0.05,0,0,0.05,12.950000000000001,0)" xlink:href="#ak"/></g><path d="M232-93c-1 65-40 97-104 97C67 4 28-28 28-90v-158h33c8 89-33 224 67 224 102 0 64-133 71-224h33v155" id="aH"/><path d="M205 0l-28-72H64L36 0H1l101-248h38L239 0h-34zm-38-99l-47-123c-12 45-31 82-46 123h93" id="aI"/><g id="z"><use transform="matrix(0.05,0,0,0.05,0,0)" xlink:href="#aH"/><use transform="matrix(0.05,0,0,0.05,12.950000000000001,0)" xlink:href="#aI"/><use transform="matrix(0.05,0,0,0.05,24.950000000000003,0)" xlink:href="#aF"/><use transform="matrix(0.05,0,0,0.05,37.550000000000004,0)" xlink:href="#aw"/></g><path d="M33 0v-248h34V0H33" id="aJ"/><g id="A"><use transform="matrix(0.05,0,0,0.05,0,0)" xlink:href="#aG"/><use transform="matrix(0.05,0,0,0.05,12,0)" xlink:href="#aE"/><use transform="matrix(0.05,0,0,0.05,24,0)" xlink:href="#aJ"/></g><path d="M240 0l2-218c-23 76-54 145-80 218h-23L58-218 59 0H30v-248h44l77 211c21-75 51-140 76-211h43V0h-30" id="aK"/><g id="B"><use transform="matrix(0.05,0,0,0.05,0,0)" xlink:href="#aE"/><use transform="matrix(0.05,0,0,0.05,12,0)" xlink:href="#ah"/><use transform="matrix(0.05,0,0,0.05,28.950000000000003,0)" xlink:href="#aK"/></g><path d="M64 0c3-98 48-159 88-221H18v-27h164v26C143-157 98-101 97 0H64" id="aL"/><g id="C"><use transform="matrix(0.05,0,0,0.05,0,0)" xlink:href="#aL"/><use transform="matrix(0.05,0,0,0.05,10,0)" xlink:href="#R"/><use transform="matrix(0.05,0,0,0.05,15,0)" xlink:href="#S"/><use transform="matrix(0.05,0,0,0.05,25,0)" xlink:href="#aC"/></g><g id="D"><use transform="matrix(0.05,0,0,0.05,0,0)" xlink:href="#aJ"/><use transform="matrix(0.05,0,0,0.05,5,0)" xlink:href="#aa"/><use transform="matrix(0.05,0,0,0.05,15,0)" xlink:href="#ae"/><use transform="matrix(0.05,0,0,0.05,25,0)" xlink:href="#ab"/><use transform="matrix(0.05,0,0,0.05,28.950000000000003,0)" xlink:href="#ao"/><use transform="matrix(0.05,0,0,0.05,37.95,0)" xlink:href="#ab"/><use transform="matrix(0.05,0,0,0.05,41.900000000000006,0)" xlink:href="#ae"/><use transform="matrix(0.05,0,0,0.05,51.900000000000006,0)" xlink:href="#Z"/><use transform="matrix(0.05,0,0,0.05,61.900000000000006,0)" xlink:href="#ac"/><use transform="matrix(0.05,0,0,0.05,71.9,0)" xlink:href="#af"/></g><g id="E"><use transform="matrix(0.05,0,0,0.05,0,0)" xlink:href="#aE"/><use transform="matrix(0.05,0,0,0.05,12,0)" xlink:href="#X"/><use transform="matrix(0.05,0,0,0.05,22,0)" xlink:href="#aq"/><use transform="matrix(0.05,0,0,0.05,34.95,0)" xlink:href="#ag"/><use transform="matrix(0.05,0,0,0.05,44.95,0)" xlink:href="#ap"/></g><path d="M115-194c55 1 70 41 70 98S169 2 115 4C84 4 66-9 55-30l1 105H24l-1-265h31l2 30c10-21 28-34 59-34zm-8 174c40 0 45-34 45-75s-6-73-45-74c-42 0-51 32-51 76 0 43 10 73 51 73" id="aM"/><g id="F"><use transform="matrix(0.05,0,0,0.05,0,0)" xlink:href="#aG"/><use transform="matrix(0.05,0,0,0.05,12,0)" xlink:href="#Z"/><use transform="matrix(0.05,0,0,0.05,22,0)" xlink:href="#aM"/><use transform="matrix(0.05,0,0,0.05,32,0)" xlink:href="#aM"/><use transform="matrix(0.05,0,0,0.05,42,0)" xlink:href="#af"/><use transform="matrix(0.05,0,0,0.05,45.95,0)" xlink:href="#at"/></g><g id="G"><use transform="matrix(0.05,0,0,0.05,0,0)" xlink:href="#W"/><use transform="matrix(0.05,0,0,0.05,9,0)" xlink:href="#X"/><use transform="matrix(0.05,0,0,0.05,19,0)" xlink:href="#aa"/><use transform="matrix(0.05,0,0,0.05,29,0)" xlink:href="#ad"/><use transform="matrix(0.05,0,0,0.05,34,0)" xlink:href="#ap"/><use transform="matrix(0.05,0,0,0.05,39.95,0)" xlink:href="#X"/><use transform="matrix(0.05,0,0,0.05,49.95,0)" xlink:href="#af"/></g><g id="H"><use transform="matrix(0.05,0,0,0.05,0,0)" xlink:href="#aI"/><use transform="matrix(0.05,0,0,0.05,11.65,0)" xlink:href="#ao"/><use transform="matrix(0.05,0,0,0.05,20.65,0)" xlink:href="#ac"/><use transform="matrix(0.05,0,0,0.05,30.649999999999995,0)" xlink:href="#ab"/><use transform="matrix(0.05,0,0,0.05,34.6,0)" xlink:href="#af"/><use transform="matrix(0.05,0,0,0.05,38.550000000000004,0)" xlink:href="#ac"/><use transform="matrix(0.05,0,0,0.05,48.550000000000004,0)" xlink:href="#am"/><use transform="matrix(0.05,0,0,0.05,58.550000000000004,0)" xlink:href="#af"/><use transform="matrix(0.05,0,0,0.05,62.5,0)" xlink:href="#ag"/></g><g id="I"><use transform="matrix(0.05,0,0,0.05,0,0)" xlink:href="#ac"/><use transform="matrix(0.05,0,0,0.05,10,0)" xlink:href="#ad"/></g><g id="J"><use transform="matrix(0.05,0,0,0.05,0,0)" xlink:href="#ar"/><use transform="matrix(0.05,0,0,0.05,9,0)" xlink:href="#at"/><use transform="matrix(0.05,0,0,0.05,18,0)" xlink:href="#ar"/><use transform="matrix(0.05,0,0,0.05,27,0)" xlink:href="#ad"/><use transform="matrix(0.05,0,0,0.05,32,0)" xlink:href="#ag"/><use transform="matrix(0.05,0,0,0.05,42,0)" xlink:href="#Y"/></g><g id="K"><use transform="matrix(0.05,0,0,0.05,0,0)" xlink:href="#af"/><use transform="matrix(0.05,0,0,0.05,3.95,0)" xlink:href="#ag"/><use transform="matrix(0.05,0,0,0.05,13.949999999999998,0)" xlink:href="#ao"/><use transform="matrix(0.05,0,0,0.05,22.95,0)" xlink:href="#ag"/><use transform="matrix(0.05,0,0,0.05,32.95,0)" xlink:href="#af"/></g><g id="L"><use transform="matrix(0.05,0,0,0.05,0,0)" xlink:href="#X"/><use transform="matrix(0.05,0,0,0.05,10,0)" xlink:href="#aa"/></g><g id="M"><use transform="matrix(0.05,0,0,0.05,0,0)" xlink:href="#aF"/><use transform="matrix(0.05,0,0,0.05,12.950000000000001,0)" xlink:href="#aE"/><use transform="matrix(0.05,0,0,0.05,24.950000000000003,0)" xlink:href="#aJ"/></g><path d="M106-169C34-169 62-67 57 0H25v-261h32l-1 103c12-21 28-36 61-36 89 0 53 116 60 194h-32v-121c2-32-8-49-39-48" id="aN"/><g id="N"><use transform="matrix(0.05,0,0,0.05,0,0)" xlink:href="#az"/><use transform="matrix(0.05,0,0,0.05,12,0)" xlink:href="#ad"/><use transform="matrix(0.05,0,0,0.05,17,0)" xlink:href="#aN"/><use transform="matrix(0.05,0,0,0.05,27,0)" xlink:href="#ag"/><use transform="matrix(0.05,0,0,0.05,37,0)" xlink:href="#ap"/><use transform="matrix(0.05,0,0,0.05,42.95,0)" xlink:href="#aa"/><use transform="matrix(0.05,0,0,0.05,52.95,0)" xlink:href="#ag"/><use transform="matrix(0.05,0,0,0.05,62.95,0)" xlink:href="#ad"/></g><g id="O"><use transform="matrix(0.05,0,0,0.05,0,0)" xlink:href="#aI"/><use transform="matrix(0.05,0,0,0.05,12,0)" xlink:href="#ax"/><use transform="matrix(0.05,0,0,0.05,17,0)" xlink:href="#aC"/></g><g id="P"><use transform="matrix(0.05,0,0,0.05,0,0)" xlink:href="#aJ"/><use transform="matrix(0.05,0,0,0.05,5,0)" xlink:href="#aa"/><use transform="matrix(0.05,0,0,0.05,15,0)" xlink:href="#aM"/><use transform="matrix(0.05,0,0,0.05,25,0)" xlink:href="#Z"/><use transform="matrix(0.05,0,0,0.05,35,0)" xlink:href="#ad"/><use transform="matrix(0.05,0,0,0.05,40,0)" xlink:href="#ar"/></g></defs></g></svg>