<svg xmlns="http://www.w3.org/2000/svg" xmlns:xlink="http://www.w3.org/1999/xlink" xmlns:lucid="lucid" width="1300" height="580"><g transform="translate(-140 -140)" lucid:page-tab-id="0_0"><path d="M230 165c0-2.76 2.24-5 5-5h292.22c2.76 0 5 2.24 5 5v150c0 2.76-2.24 5-5 5H235c-2.76 0-5-2.24-5-5z" stroke="#000" stroke-width="2" fill="#fff"/><use xlink:href="#a" transform="matrix(1,0,0,1,234.99999999999997,165) translate(35.125 78.60000000000001)"/><use xlink:href="#b" transform="matrix(1,0,0,1,234.99999999999997,165) translate(91.025 78.60000000000001)"/><use xlink:href="#c" transform="matrix(1,0,0,1,234.99999999999997,165) translate(200.925 78.60000000000001)"/><path d="M638.9 165c0-2.76 2.23-5 5-5h292.2c2.77 0 5 2.24 5 5v150c0 2.76-2.23 5-5 5H643.9c-2.77 0-5-2.24-5-5z" stroke="#000" stroke-width="2" fill="#fff"/><use xlink:href="#d" transform="matrix(1,0,0,1,643.8888888888889,165) translate(53.150000000000006 78.60000000000001)"/><use xlink:href="#c" transform="matrix(1,0,0,1,643.8888888888889,165) translate(182.9 78.60000000000001)"/><path d="M1047.78 165c0-2.76 2.24-5 5-5H1345c2.76 0 5 2.24 5 5v150c0 2.76-2.24 5-5 5h-292.22c-2.76 0-5-2.24-5-5z" stroke="#000" stroke-width="2" fill="#fff"/><use xlink:href="#e" transform="matrix(1,0,0,1,1052.7777777777778,165) translate(59.125 78.60000000000001)"/><use xlink:href="#f" transform="matrix(1,0,0,1,1052.7777777777778,165) translate(118.025 78.60000000000001)"/><use xlink:href="#c" transform="matrix(1,0,0,1,1052.7777777777778,165) translate(176.925 78.60000000000001)"/><path d="M230 545c0-2.76 2.24-5 5-5h292.22c2.76 0 5 2.24 5 5v150c0 2.76-2.24 5-5 5H235c-2.76 0-5-2.24-5-5z" stroke="#000" stroke-width="2" fill="#fff"/><use xlink:href="#g" transform="matrix(1,0,0,1,234.99999999999997,545) translate(83.55 78.60000000000001)"/><use xlink:href="#c" transform="matrix(1,0,0,1,234.99999999999997,545) translate(152.5 78.60000000000001)"/><path d="M638.9 545c0-2.76 2.23-5 5-5h292.2c2.77 0 5 2.24 5 5v150c0 2.76-2.23 5-5 5H643.9c-2.77 0-5-2.24-5-5z" stroke="#000" stroke-width="2" fill="#fff"/><use xlink:href="#h" transform="matrix(1,0,0,1,643.8888888888889,545) translate(84.57499999999999 78.60000000000001)"/><use xlink:href="#c" transform="matrix(1,0,0,1,643.8888888888889,545) translate(151.475 78.60000000000001)"/><path d="M1047.78 545c0-2.76 2.24-5 5-5H1345c2.76 0 5 2.24 5 5v150c0 2.76-2.24 5-5 5h-292.22c-2.76 0-5-2.24-5-5z" stroke="#000" stroke-width="2" fill="#fff"/><use xlink:href="#i" transform="matrix(1,0,0,1,1052.7777777777778,545) translate(58.8 78.60000000000001)"/><use xlink:href="#j" transform="matrix(1,0,0,1,1052.7777777777778,545) translate(110.3 78.60000000000001)"/><use xlink:href="#c" transform="matrix(1,0,0,1,1052.7777777777778,545) translate(177.25 78.60000000000001)"/><path d="M160 430.5l39.5-39.5v19.75h1181V391l39.5 39.5-39.5 39.5v-19.75h-1181V470z" stroke="#000" stroke-width="2" fill="#fff"/><use xlink:href="#k" transform="matrix(1,0,0,1,165,396) translate(495.67499999999995 38.1)"/><use xlink:href="#l" transform="matrix(1,0,0,1,165,396) translate(599.525 38.1)"/><use xlink:href="#m" transform="matrix(1,0,0,1,165,396) translate(725.325 38.1)"/><path d="M381.1 322.96v84.82" stroke="#000" stroke-width="2" fill="none"/><path d="M392.15 339.67l-1.72 1.02-9.32-15.77-9.3 15.76-1.73-1.03L381.1 321zM392.15 391.08l-11.04 18.67-11.03-18.67 1.72-1.02 9.3 15.76 9.33-15.76z"/><path d="M790 322.96v84.83" stroke="#000" stroke-width="2" fill="none"/><path d="M801.04 339.67l-1.72 1.02-9.32-15.77-9.32 15.76-1.72-1.03L790 321zM801.04 391.08L790 409.75l-11.04-18.67 1.72-1.02 9.32 15.76 9.32-15.76z"/><path d="M1198.9 322.96v84.83" stroke="#000" stroke-width="2" fill="none"/><path d="M1209.93 339.67l-1.72 1.02-9.3-15.77-9.33 15.76-1.72-1.03L1198.9 321zM1209.93 391.08l-11.04 18.67-11.05-18.67 1.72-1.02 9.32 15.76 9.3-15.76z"/><path d="M381.1 537.04v-83.82" stroke="#000" stroke-width="2" fill="none"/><path d="M392.15 520.33L381.1 539l-11.03-18.67 1.72-1.02 9.3 15.77 9.33-15.76zM392.15 469.92l-1.72 1.02-9.32-15.76-9.3 15.76-1.73-1.02 11.04-18.67z"/><path d="M790 537.04V453.2" stroke="#000" stroke-width="2" fill="none"/><path d="M801.04 520.33L790 539l-11.04-18.67 1.72-1.02 9.32 15.77 9.32-15.76zM801.04 469.92l-1.72 1.02-9.32-15.76-9.32 15.76-1.72-1.02L790 451.25z"/><path d="M1198.9 537.04V453.2" stroke="#000" stroke-width="2" fill="none"/><path d="M1209.93 520.33L1198.9 539l-11.05-18.67 1.72-1.02 9.32 15.77 9.3-15.76zM1209.93 469.92l-1.72 1.02-9.3-15.76-9.33 15.76-1.72-1.02 11.04-18.67z"/><defs><path d="M30-248c87 1 191-15 191 75 0 78-77 80-158 76V0H30v-248zm33 125c57 0 124 11 124-50 0-59-68-47-124-48v98" id="n"/><path d="M100-194c62-1 85 37 85 99 1 63-27 99-86 99S16-35 15-95c0-66 28-99 85-99zM99-20c44 1 53-31 53-75 0-43-8-75-51-75s-53 32-53 75 10 74 51 75" id="o"/><path d="M206 0h-36l-40-164L89 0H53L-1-190h32L70-26l43-164h34l41 164 42-164h31" id="p"/><path d="M100-194c63 0 86 42 84 106H49c0 40 14 67 53 68 26 1 43-12 49-29l28 8c-11 28-37 45-77 45C44 4 14-33 15-96c1-61 26-98 85-98zm52 81c6-60-76-77-97-28-3 7-6 17-6 28h103" id="q"/><path d="M114-163C36-179 61-72 57 0H25l-1-190h30c1 12-1 29 2 39 6-27 23-49 58-41v29" id="r"/><g id="a"><use transform="matrix(0.05,0,0,0.05,0,0)" xlink:href="#n"/><use transform="matrix(0.05,0,0,0.05,12,0)" xlink:href="#o"/><use transform="matrix(0.05,0,0,0.05,22,0)" xlink:href="#p"/><use transform="matrix(0.05,0,0,0.05,34.95,0)" xlink:href="#q"/><use transform="matrix(0.05,0,0,0.05,44.95,0)" xlink:href="#r"/></g><path d="M210-169c-67 3-38 105-44 169h-31v-121c0-29-5-50-35-48C34-165 62-65 56 0H25l-1-190h30c1 10-1 24 2 32 10-44 99-50 107 0 11-21 27-35 58-36 85-2 47 119 55 194h-31v-121c0-29-5-49-35-48" id="s"/><path d="M141-36C126-15 110 5 73 4 37 3 15-17 15-53c-1-64 63-63 125-63 3-35-9-54-41-54-24 1-41 7-42 31l-33-3c5-37 33-52 76-52 45 0 72 20 72 64v82c-1 20 7 32 28 27v20c-31 9-61-2-59-35zM48-53c0 20 12 33 32 33 41-3 63-29 60-74-43 2-92-5-92 41" id="t"/><path d="M117-194c89-4 53 116 60 194h-32v-121c0-31-8-49-39-48C34-167 62-67 57 0H25l-1-190h30c1 10-1 24 2 32 11-22 29-35 61-36" id="u"/><path d="M177-190C167-65 218 103 67 71c-23-6-38-20-44-43l32-5c15 47 100 32 89-28v-30C133-14 115 1 83 1 29 1 15-40 15-95c0-56 16-97 71-98 29-1 48 16 59 35 1-10 0-23 2-32h30zM94-22c36 0 50-32 50-73 0-42-14-75-50-75-39 0-46 34-46 75s6 73 46 73" id="v"/><path d="M59-47c-2 24 18 29 38 22v24C64 9 27 4 27-40v-127H5v-23h24l9-43h21v43h35v23H59v120" id="w"/><g id="b"><use transform="matrix(0.05,0,0,0.05,0,0)" xlink:href="#s"/><use transform="matrix(0.05,0,0,0.05,14.950000000000001,0)" xlink:href="#t"/><use transform="matrix(0.05,0,0,0.05,24.950000000000003,0)" xlink:href="#u"/><use transform="matrix(0.05,0,0,0.05,34.95,0)" xlink:href="#t"/><use transform="matrix(0.05,0,0,0.05,44.95,0)" xlink:href="#v"/><use transform="matrix(0.05,0,0,0.05,54.95,0)" xlink:href="#q"/><use transform="matrix(0.05,0,0,0.05,64.95,0)" xlink:href="#s"/><use transform="matrix(0.05,0,0,0.05,79.9,0)" xlink:href="#q"/><use transform="matrix(0.05,0,0,0.05,89.9,0)" xlink:href="#u"/><use transform="matrix(0.05,0,0,0.05,99.9,0)" xlink:href="#w"/></g><path d="M135-143c-3-34-86-38-87 0 15 53 115 12 119 90S17 21 10-45l28-5c4 36 97 45 98 0-10-56-113-15-118-90-4-57 82-63 122-42 12 7 21 19 24 35" id="x"/><path d="M179-190L93 31C79 59 56 82 12 73V49c39 6 53-20 64-50L1-190h34L92-34l54-156h33" id="y"/><g id="c"><use transform="matrix(0.05,0,0,0.05,0,0)" xlink:href="#x"/><use transform="matrix(0.05,0,0,0.05,9,0)" xlink:href="#y"/><use transform="matrix(0.05,0,0,0.05,18,0)" xlink:href="#x"/><use transform="matrix(0.05,0,0,0.05,27,0)" xlink:href="#w"/><use transform="matrix(0.05,0,0,0.05,32,0)" xlink:href="#q"/><use transform="matrix(0.05,0,0,0.05,42,0)" xlink:href="#s"/></g><path d="M212-179c-10-28-35-45-73-45-59 0-87 40-87 99 0 60 29 101 89 101 43 0 62-24 78-52l27 14C228-24 195 4 139 4 59 4 22-46 18-125c-6-104 99-153 187-111 19 9 31 26 39 46" id="z"/><path d="M84 4C-5 8 30-112 23-190h32v120c0 31 7 50 39 49 72-2 45-101 50-169h31l1 190h-30c-1-10 1-25-2-33-11 22-28 36-60 37" id="A"/><path d="M24-231v-30h32v30H24zM24 0v-190h32V0H24" id="B"/><path d="M96-169c-40 0-48 33-48 73s9 75 48 75c24 0 41-14 43-38l32 2c-6 37-31 61-74 61-59 0-76-41-82-99-10-93 101-131 147-64 4 7 5 14 7 22l-32 3c-4-21-16-35-41-35" id="C"/><g id="d"><use transform="matrix(0.05,0,0,0.05,0,0)" xlink:href="#z"/><use transform="matrix(0.05,0,0,0.05,12.950000000000001,0)" xlink:href="#o"/><use transform="matrix(0.05,0,0,0.05,22.950000000000003,0)" xlink:href="#s"/><use transform="matrix(0.05,0,0,0.05,37.900000000000006,0)" xlink:href="#s"/><use transform="matrix(0.05,0,0,0.05,52.85,0)" xlink:href="#A"/><use transform="matrix(0.05,0,0,0.05,62.85,0)" xlink:href="#u"/><use transform="matrix(0.05,0,0,0.05,72.85000000000001,0)" xlink:href="#B"/><use transform="matrix(0.05,0,0,0.05,76.80000000000001,0)" xlink:href="#C"/><use transform="matrix(0.05,0,0,0.05,85.80000000000001,0)" xlink:href="#t"/><use transform="matrix(0.05,0,0,0.05,95.80000000000001,0)" xlink:href="#w"/><use transform="matrix(0.05,0,0,0.05,100.80000000000001,0)" xlink:href="#B"/><use transform="matrix(0.05,0,0,0.05,104.75,0)" xlink:href="#o"/><use transform="matrix(0.05,0,0,0.05,114.75,0)" xlink:href="#u"/></g><path d="M240 0l2-218c-23 76-54 145-80 218h-23L58-218 59 0H30v-248h44l77 211c21-75 51-140 76-211h43V0h-30" id="D"/><g id="e"><use transform="matrix(0.05,0,0,0.05,0,0)" xlink:href="#D"/><use transform="matrix(0.05,0,0,0.05,14.950000000000001,0)" xlink:href="#o"/><use transform="matrix(0.05,0,0,0.05,24.950000000000003,0)" xlink:href="#w"/><use transform="matrix(0.05,0,0,0.05,29.950000000000003,0)" xlink:href="#B"/><use transform="matrix(0.05,0,0,0.05,33.900000000000006,0)" xlink:href="#o"/><use transform="matrix(0.05,0,0,0.05,43.900000000000006,0)" xlink:href="#u"/></g><path d="M24 0v-261h32V0H24" id="E"/><g id="f"><use transform="matrix(0.05,0,0,0.05,0,0)" xlink:href="#C"/><use transform="matrix(0.05,0,0,0.05,9,0)" xlink:href="#o"/><use transform="matrix(0.05,0,0,0.05,19,0)" xlink:href="#u"/><use transform="matrix(0.05,0,0,0.05,29,0)" xlink:href="#w"/><use transform="matrix(0.05,0,0,0.05,34,0)" xlink:href="#r"/><use transform="matrix(0.05,0,0,0.05,39.95,0)" xlink:href="#o"/><use transform="matrix(0.05,0,0,0.05,49.95,0)" xlink:href="#E"/></g><path d="M30 0v-248h33v221h125V0H30" id="F"/><g id="g"><use transform="matrix(0.05,0,0,0.05,0,0)" xlink:href="#F"/><use transform="matrix(0.05,0,0,0.05,10,0)" xlink:href="#o"/><use transform="matrix(0.05,0,0,0.05,20,0)" xlink:href="#v"/><use transform="matrix(0.05,0,0,0.05,30,0)" xlink:href="#v"/><use transform="matrix(0.05,0,0,0.05,40,0)" xlink:href="#B"/><use transform="matrix(0.05,0,0,0.05,43.95,0)" xlink:href="#u"/><use transform="matrix(0.05,0,0,0.05,53.95,0)" xlink:href="#v"/></g><g id="h"><use transform="matrix(0.05,0,0,0.05,0,0)" xlink:href="#n"/><use transform="matrix(0.05,0,0,0.05,12,0)" xlink:href="#E"/><use transform="matrix(0.05,0,0,0.05,15.949999999999998,0)" xlink:href="#t"/><use transform="matrix(0.05,0,0,0.05,25.950000000000003,0)" xlink:href="#u"/><use transform="matrix(0.05,0,0,0.05,35.95,0)" xlink:href="#u"/><use transform="matrix(0.05,0,0,0.05,45.95,0)" xlink:href="#q"/><use transform="matrix(0.05,0,0,0.05,55.95,0)" xlink:href="#r"/></g><path d="M266 0h-40l-56-210L115 0H75L2-248h35L96-30l15-64 43-154h32l59 218 59-218h35" id="G"/><path d="M85-194c31 0 48 13 60 33l-1-100h32l1 261h-30c-2-10 0-23-3-31C134-8 116 4 85 4 32 4 16-35 15-94c0-66 23-100 70-100zm9 24c-40 0-46 34-46 75 0 40 6 74 45 74 42 0 51-32 51-76 0-42-9-74-50-73" id="H"/><g id="i"><use transform="matrix(0.05,0,0,0.05,0,0)" xlink:href="#G"/><use transform="matrix(0.05,0,0,0.05,16.599999999999998,0)" xlink:href="#o"/><use transform="matrix(0.05,0,0,0.05,26.599999999999994,0)" xlink:href="#r"/><use transform="matrix(0.05,0,0,0.05,32.55,0)" xlink:href="#E"/><use transform="matrix(0.05,0,0,0.05,36.5,0)" xlink:href="#H"/></g><g id="j"><use transform="matrix(0.05,0,0,0.05,0,0)" xlink:href="#x"/><use transform="matrix(0.05,0,0,0.05,9,0)" xlink:href="#q"/><use transform="matrix(0.05,0,0,0.05,19,0)" xlink:href="#u"/><use transform="matrix(0.05,0,0,0.05,29,0)" xlink:href="#x"/><use transform="matrix(0.05,0,0,0.05,38,0)" xlink:href="#B"/><use transform="matrix(0.05,0,0,0.05,41.95,0)" xlink:href="#u"/><use transform="matrix(0.05,0,0,0.05,51.95,0)" xlink:href="#v"/></g><path d="M33 0v-248h34V0H33" id="I"/><path d="M16-82v-28h88v28H16" id="J"/><g id="k"><use transform="matrix(0.05,0,0,0.05,0,0)" xlink:href="#I"/><use transform="matrix(0.05,0,0,0.05,5,0)" xlink:href="#u"/><use transform="matrix(0.05,0,0,0.05,15,0)" xlink:href="#w"/><use transform="matrix(0.05,0,0,0.05,20,0)" xlink:href="#q"/><use transform="matrix(0.05,0,0,0.05,30,0)" xlink:href="#r"/><use transform="matrix(0.05,0,0,0.05,35.95,0)" xlink:href="#J"/><use transform="matrix(0.05,0,0,0.05,41.900000000000006,0)" xlink:href="#x"/><use transform="matrix(0.05,0,0,0.05,50.900000000000006,0)" xlink:href="#y"/><use transform="matrix(0.05,0,0,0.05,59.900000000000006,0)" xlink:href="#x"/><use transform="matrix(0.05,0,0,0.05,68.9,0)" xlink:href="#w"/><use transform="matrix(0.05,0,0,0.05,73.9,0)" xlink:href="#q"/><use transform="matrix(0.05,0,0,0.05,83.9,0)" xlink:href="#s"/></g><g id="l"><use transform="matrix(0.05,0,0,0.05,0,0)" xlink:href="#C"/><use transform="matrix(0.05,0,0,0.05,9,0)" xlink:href="#o"/><use transform="matrix(0.05,0,0,0.05,19,0)" xlink:href="#s"/><use transform="matrix(0.05,0,0,0.05,33.95,0)" xlink:href="#s"/><use transform="matrix(0.05,0,0,0.05,48.900000000000006,0)" xlink:href="#A"/><use transform="matrix(0.05,0,0,0.05,58.900000000000006,0)" xlink:href="#u"/><use transform="matrix(0.05,0,0,0.05,68.9,0)" xlink:href="#B"/><use transform="matrix(0.05,0,0,0.05,72.85000000000001,0)" xlink:href="#C"/><use transform="matrix(0.05,0,0,0.05,81.85000000000001,0)" xlink:href="#t"/><use transform="matrix(0.05,0,0,0.05,91.85000000000001,0)" xlink:href="#w"/><use transform="matrix(0.05,0,0,0.05,96.85000000000001,0)" xlink:href="#B"/><use transform="matrix(0.05,0,0,0.05,100.80000000000001,0)" xlink:href="#o"/><use transform="matrix(0.05,0,0,0.05,110.80000000000001,0)" xlink:href="#u"/></g><path d="M115-194c53 0 69 39 70 98 0 66-23 100-70 100C84 3 66-7 56-30L54 0H23l1-261h32v101c10-23 28-34 59-34zm-8 174c40 0 45-34 45-75 0-40-5-75-45-74-42 0-51 32-51 76 0 43 10 73 51 73" id="K"/><g id="m"><use transform="matrix(0.05,0,0,0.05,0,0)" xlink:href="#K"/><use transform="matrix(0.05,0,0,0.05,10,0)" xlink:href="#A"/><use transform="matrix(0.05,0,0,0.05,20,0)" xlink:href="#x"/></g></defs></g></svg>