<svg xmlns="http://www.w3.org/2000/svg" xmlns:xlink="http://www.w3.org/1999/xlink" xmlns:lucid="lucid" width="850" height="940"><g transform="translate(-50 -40)" lucid:page-tab-id="0_0"><path d="M210 458.75h90.67V409.1" stroke="#000" stroke-width="5" fill="none"/><path/><path d="M305.3 408.36h-9.27l4.64-14.27z" fill="#fff"/><path d="M308.74 410.86H292.6l8.07-24.86zm-9.27-5h2.4l-1.2-3.68z"/><path d="M70 420h140v77.5H70z" stroke="#000" stroke-opacity="0" stroke-width="2" fill="#fff" fill-opacity="0"/><use xlink:href="#a" transform="matrix(1,0,0,1,75,425) translate(25.75 16)"/><use xlink:href="#b" transform="matrix(1,0,0,1,75,425) translate(31.049999999999997 37.6)"/><use xlink:href="#c" transform="matrix(1,0,0,1,75,425) translate(30.200000000000003 59.2)"/><path d="M230 245c0-2.76 2.24-5 5-5h510c2.76 0 5 2.24 5 5v135c0 2.76-2.24 5-5 5H235c-2.76 0-5-2.24-5-5z" stroke="#000" stroke-width="2" fill="#fff"/><use xlink:href="#d" transform="matrix(1,0,0,1,235,245) translate(188.14999999999998 71.10000000000001)"/><use xlink:href="#e" transform="matrix(1,0,0,1,235,245) translate(248.04999999999998 71.10000000000001)"/><path d="M642.96 532.5h105.08" stroke="#000" stroke-width="2" fill="none"/><path d="M660.7 523.18l-15.77 9.32 15.76 9.32-1.03 1.72L641 532.5l18.67-11.04zM750 532.5l-18.67 11.04-1.02-1.72 15.77-9.32-15.76-9.32 1.03-1.72z"/><path d="M750 502.5h70v60h-70z" stroke="#000" stroke-opacity="0" stroke-width="2" fill="#fff" fill-opacity="0"/><use xlink:href="#f" transform="matrix(1,0,0,1,755,507.5) translate(0 28.6)"/><use xlink:href="#g" transform="matrix(1,0,0,1,755,507.5) translate(10 28.6)"/><path d="M230 65c0-2.76 2.24-5 5-5h230c2.76 0 5 2.24 5 5v90c0 2.76-2.24 5-5 5H235c-2.76 0-5-2.24-5-5z" stroke="#000" stroke-width="2" fill="#fff"/><path d="M250 60h80v54.17h-80z" fill="none"/><path d="M250 87.08h16c0 11.97 10.75 21.67 24 21.67s24-9.7 24-21.67c0-11.96-10.75-21.66-24-21.66s-24 9.7-24 21.66m48 0h16z" stroke="#000" stroke-width="2" fill="#fff"/><path d="M282 95.2V78.97l8 16.25 8-16.24V95.2" stroke="#000" stroke-width="2" fill="none"/><path d="M350 80.83h100v58.34H350z" stroke="#fff" stroke-width="2" fill="#fff"/><use xlink:href="#h" transform="matrix(1,0,0,1,355,85.83333333333334) translate(30 17.299999999999997)"/><use xlink:href="#i" transform="matrix(1,0,0,1,355,85.83333333333334) translate(17.549999999999997 38.9)"/><path d="M510 65c0-2.76 2.24-5 5-5h230c2.76 0 5 2.24 5 5v90c0 2.76-2.24 5-5 5H515c-2.76 0-5-2.24-5-5z" stroke="#000" stroke-width="2" fill="#fff"/><path d="M530 60h80v54.17h-80z" fill="none"/><path d="M530 87.08h16c0 11.97 10.75 21.67 24 21.67s24-9.7 24-21.67c0-11.96-10.75-21.66-24-21.66s-24 9.7-24 21.66m48 0h16z" stroke="#000" stroke-width="2" fill="#fff"/><path d="M562 95.2V78.97l8 16.25 8-16.24V95.2" stroke="#000" stroke-width="2" fill="none"/><path d="M630 80.83h100v58.34H630z" stroke="#fff" stroke-width="2" fill="#fff"/><use xlink:href="#j" transform="matrix(1,0,0,1,635,85.83333333333334) translate(24.049999999999997 17.299999999999997)"/><use xlink:href="#i" transform="matrix(1,0,0,1,635,85.83333333333334) translate(17.549999999999997 38.9)"/><path d="M307.2 184.1V200h-.8v39" stroke="#000" stroke-width="5" fill="none"/><path d="M311.83 183.36h-9.27l4.63-14.27z" fill="#fff"/><path d="M315.27 185.86h-16.15L307.2 161zm-9.27-5h2.4l-1.2-3.68zM308.9 240h-5v-1h5z"/><path d="M674.14 184.1V200h.8v39" stroke="#000" stroke-width="5" fill="none"/><path d="M678.78 183.36h-9.27l4.64-14.27z" fill="#fff"/><path d="M682.22 185.86h-16.15l8.07-24.86zm-9.27-5h2.4l-1.2-3.68zM677.43 240h-5v-1h5z"/><path d="M411.53 161v39h-.6v20.76" stroke="#000" stroke-width="2" fill="none"/><path d="M412.53 161h-2v-1h2zM410.94 235.76l-4.64-14.26h9.27z"/><path d="M410.94 239l-6.02-18.5h12.03zm-3.26-16.5l3.26 10.03 3.25-10.03z"/><path d="M571.14 161v39h.6v20.76" stroke="#000" stroke-width="2" fill="none"/><path d="M572.14 161h-2v-1h2zM571.74 235.76l-4.63-14.26h9.28z"/><path d="M571.74 239l-6-18.5h12.02zm-3.25-16.5l3.24 10.03L575 222.5z"/><path d="M430 170h120v60H430z" stroke="#000" stroke-opacity="0" stroke-width="2" fill="#fff" fill-opacity="0"/><use xlink:href="#k" transform="matrix(1,0,0,1,435,175) translate(17.025 28.6)"/><path d="M340 465c0-2.76 2.24-5 5-5h290c2.76 0 5 2.24 5 5v135c0 2.76-2.24 5-5 5H345c-2.76 0-5-2.24-5-5z" stroke="#000" stroke-width="2" fill="#fff"/><use xlink:href="#l" transform="matrix(1,0,0,1,345,465) translate(87.125 60.3)"/><use xlink:href="#m" transform="matrix(1,0,0,1,345,465) translate(146.025 60.3)"/><use xlink:href="#n" transform="matrix(1,0,0,1,345,465) translate(61.07499999999999 81.9)"/><use xlink:href="#o" transform="matrix(1,0,0,1,345,465) translate(126.02499999999999 81.9)"/><use xlink:href="#p" transform="matrix(1,0,0,1,345,465) translate(161.02499999999998 81.9)"/><path d="M490 457.04v-69.08" stroke="#000" stroke-width="2" fill="none"/><path d="M501.04 440.33L490 459l-11.04-18.67 1.72-1.02 9.32 15.77 9.32-15.76zM501.04 404.67l-1.72 1.02-9.32-15.77-9.32 15.76-1.72-1.03L490 386z"/><path d="M120 720.3c0-2.77 2.24-5 5-5h213.92c2.76 0 5 2.23 5 5v92.35c0 2.76-2.24 5-5 5H125c-2.76 0-5-2.24-5-5z" stroke="#000" stroke-width="2" fill="#fff"/><use xlink:href="#q" transform="matrix(1,0,0,1,125.00000000000001,720.2941176470588) translate(66.075 39.3)"/><use xlink:href="#r" transform="matrix(1,0,0,1,125.00000000000001,720.2941176470588) translate(76.025 60.9)"/><path d="M383.43 720.3c0-2.77 2.24-5 5-5h213.92c2.76 0 5 2.23 5 5v92.35c0 2.76-2.24 5-5 5H388.43c-2.76 0-5-2.24-5-5z" stroke="#000" stroke-width="2" fill="#fff"/><use xlink:href="#s" transform="matrix(1,0,0,1,388.4315424610052,720.2941176470588) translate(77.1 39.3)"/><use xlink:href="#t" transform="matrix(1,0,0,1,388.4315424610052,720.2941176470588) translate(73.525 60.9)"/><use xlink:href="#u" transform="matrix(1,0,0,1,388.4315424610052,720.2941176470588) translate(78.525 60.9)"/><path d="M383.43 847.35c0-2.76 2.24-5 5-5h213.92c2.76 0 5 2.24 5 5v92.36c0 2.77-2.24 5-5 5H388.43c-2.76 0-5-2.23-5-5z" stroke="#000" stroke-width="2" fill="#fff"/><use xlink:href="#v" transform="matrix(1,0,0,1,388.4315424610052,847.3529411764706) translate(38.14999999999999 39.3)"/><use xlink:href="#w" transform="matrix(1,0,0,1,388.4315424610052,847.3529411764706) translate(97.94999999999999 39.3)"/><use xlink:href="#r" transform="matrix(1,0,0,1,388.4315424610052,847.3529411764706) translate(76.025 60.9)"/><path d="M123.5 847.35c0-2.76 2.25-5 5-5h213.93c2.76 0 5 2.24 5 5v92.36c0 2.77-2.24 5-5 5H128.5c-2.75 0-5-2.23-5-5z" stroke="#000" stroke-width="2" fill="#fff"/><g><use xlink:href="#x" transform="matrix(1,0,0,1,128.51242056614672,847.3529411764706) translate(41.599999999999994 39.3)"/><use xlink:href="#y" transform="matrix(1,0,0,1,128.51242056614672,847.3529411764706) translate(104.4 39.3)"/><use xlink:href="#r" transform="matrix(1,0,0,1,128.51242056614672,847.3529411764706) translate(76.025 60.9)"/></g><path d="M643.35 720.3c0-2.77 2.24-5 5-5h213.92c2.76 0 5 2.23 5 5v92.35c0 2.76-2.24 5-5 5H648.35c-2.76 0-5-2.24-5-5z" stroke="#000" stroke-width="2" fill="#fff"/><g><use xlink:href="#z" transform="matrix(1,0,0,1,648.3506643558635,720.2941176470588) translate(51.074999999999996 50.1)"/><use xlink:href="#u" transform="matrix(1,0,0,1,648.3506643558635,720.2941176470588) translate(100.975 50.1)"/></g><path d="M643.35 847.35c0-2.76 2.24-5 5-5h213.92c2.76 0 5 2.24 5 5v92.36c0 2.77-2.24 5-5 5H648.35c-2.76 0-5-2.23-5-5z" stroke="#000" stroke-width="2" fill="#fff"/><g><use xlink:href="#A" transform="matrix(1,0,0,1,648.3506643558635,847.3529411764706) translate(63.475 39.3)"/><use xlink:href="#o" transform="matrix(1,0,0,1,648.3506643558635,847.3529411764706) translate(91.675 39.3)"/><use xlink:href="#B" transform="matrix(1,0,0,1,648.3506643558635,847.3529411764706) translate(126.67500000000001 39.3)"/><use xlink:href="#r" transform="matrix(1,0,0,1,648.3506643558635,847.3529411764706) translate(76.025 60.9)"/></g><path d="M100 700h780v260H100z" stroke="#666" stroke-width="2" fill-opacity="0"/><path d="M490 699v-71.53" stroke="#000" stroke-width="4" fill="none"/><path d="M492 700h-4v-1h4zM494.64 626.74h-9.28l4.64-14.27z"/><path d="M497.4 628.74h-14.8L490 606zm-9.28-4h3.76l-1.88-5.8z"/><path d="M510 400h120v60H510z" stroke="#000" stroke-opacity="0" stroke-width="2" fill="#fff" fill-opacity="0"/><g><use xlink:href="#f" transform="matrix(1,0,0,1,515,405) translate(0 28.6)"/><use xlink:href="#C" transform="matrix(1,0,0,1,515,405) translate(10 28.6)"/><use xlink:href="#D" transform="matrix(1,0,0,1,515,405) translate(39.95 28.6)"/><use xlink:href="#E" transform="matrix(1,0,0,1,515,405) translate(49.95 28.6)"/></g><path d="M510 640h120v60H510z" stroke="#000" stroke-opacity="0" stroke-width="2" fill="#fff" fill-opacity="0"/><g><use xlink:href="#t" transform="matrix(1,0,0,1,515,645) translate(0 28.6)"/><use xlink:href="#F" transform="matrix(1,0,0,1,515,645) translate(5 28.6)"/></g><defs><path d="M240 0l2-218c-23 76-54 145-80 218h-23L58-218 59 0H30v-248h44l77 211c21-75 51-140 76-211h43V0h-30" id="G"/><path d="M140-251c81 0 123 46 123 126C263-46 219 4 140 4 59 4 17-45 17-125s42-126 123-126zm0 227c63 0 89-41 89-101s-29-99-89-99c-61 0-89 39-89 99S79-25 140-24" id="H"/><path d="M127-220V0H93v-220H8v-28h204v28h-85" id="I"/><path d="M233-177c-1 41-23 64-60 70L243 0h-38l-65-103H63V0H30v-248c88 3 205-21 203 71zM63-129c60-2 137 13 137-47 0-61-80-42-137-45v92" id="J"/><path d="M185-189c-5-48-123-54-124 2 14 75 158 14 163 119 3 78-121 87-175 55-17-10-28-26-33-46l33-7c5 56 141 63 141-1 0-78-155-14-162-118-5-82 145-84 179-34 5 7 8 16 11 25" id="K"/><g id="a"><use transform="matrix(0.05,0,0,0.05,0,0)" xlink:href="#G"/><use transform="matrix(0.05,0,0,0.05,14.950000000000001,0)" xlink:href="#H"/><use transform="matrix(0.05,0,0,0.05,28.950000000000003,0)" xlink:href="#I"/><use transform="matrix(0.05,0,0,0.05,39.550000000000004,0)" xlink:href="#H"/><use transform="matrix(0.05,0,0,0.05,53.550000000000004,0)" xlink:href="#J"/><use transform="matrix(0.05,0,0,0.05,66.5,0)" xlink:href="#K"/></g><path d="M30-248c87 1 191-15 191 75 0 78-77 80-158 76V0H30v-248zm33 125c57 0 124 11 124-50 0-59-68-47-124-48v98" id="L"/><path d="M266 0h-40l-56-210L115 0H75L2-248h35L96-30l15-64 43-154h32l59 218 59-218h35" id="M"/><path d="M30 0v-248h187v28H63v79h144v27H63v87h162V0H30" id="N"/><g id="b"><use transform="matrix(0.05,0,0,0.05,0,0)" xlink:href="#L"/><use transform="matrix(0.05,0,0,0.05,12,0)" xlink:href="#H"/><use transform="matrix(0.05,0,0,0.05,26,0)" xlink:href="#M"/><use transform="matrix(0.05,0,0,0.05,42.95,0)" xlink:href="#N"/><use transform="matrix(0.05,0,0,0.05,54.95,0)" xlink:href="#J"/></g><path d="M232-93c-1 65-40 97-104 97C67 4 28-28 28-90v-158h33c8 89-33 224 67 224 102 0 64-133 71-224h33v155" id="O"/><path d="M30 0v-248h33v221h125V0H30" id="P"/><path d="M137-103V0h-34v-103L8-248h37l75 118 75-118h37" id="Q"/><g id="c"><use transform="matrix(0.05,0,0,0.05,0,0)" xlink:href="#K"/><use transform="matrix(0.05,0,0,0.05,12,0)" xlink:href="#O"/><use transform="matrix(0.05,0,0,0.05,24.950000000000003,0)" xlink:href="#L"/><use transform="matrix(0.05,0,0,0.05,36.95,0)" xlink:href="#L"/><use transform="matrix(0.05,0,0,0.05,48.95,0)" xlink:href="#P"/><use transform="matrix(0.05,0,0,0.05,57.6,0)" xlink:href="#Q"/></g><path d="M100-194c62-1 85 37 85 99 1 63-27 99-86 99S16-35 15-95c0-66 28-99 85-99zM99-20c44 1 53-31 53-75 0-43-8-75-51-75s-53 32-53 75 10 74 51 75" id="R"/><path d="M59-47c-2 24 18 29 38 22v24C64 9 27 4 27-40v-127H5v-23h24l9-43h21v43h35v23H59v120" id="S"/><path d="M114-163C36-179 61-72 57 0H25l-1-190h30c1 12-1 29 2 39 6-27 23-49 58-41v29" id="T"/><path d="M135-143c-3-34-86-38-87 0 15 53 115 12 119 90S17 21 10-45l28-5c4 36 97 45 98 0-10-56-113-15-118-90-4-57 82-63 122-42 12 7 21 19 24 35" id="U"/><g id="d"><use transform="matrix(0.05,0,0,0.05,0,0)" xlink:href="#G"/><use transform="matrix(0.05,0,0,0.05,14.950000000000001,0)" xlink:href="#R"/><use transform="matrix(0.05,0,0,0.05,24.950000000000003,0)" xlink:href="#S"/><use transform="matrix(0.05,0,0,0.05,29.950000000000003,0)" xlink:href="#R"/><use transform="matrix(0.05,0,0,0.05,39.95,0)" xlink:href="#T"/><use transform="matrix(0.05,0,0,0.05,45.900000000000006,0)" xlink:href="#U"/></g><path d="M96-169c-40 0-48 33-48 73s9 75 48 75c24 0 41-14 43-38l32 2c-6 37-31 61-74 61-59 0-76-41-82-99-10-93 101-131 147-64 4 7 5 14 7 22l-32 3c-4-21-16-35-41-35" id="V"/><path d="M117-194c89-4 53 116 60 194h-32v-121c0-31-8-49-39-48C34-167 62-67 57 0H25l-1-190h30c1 10-1 24 2 32 11-22 29-35 61-36" id="W"/><path d="M24 0v-261h32V0H24" id="X"/><path d="M100-194c63 0 86 42 84 106H49c0 40 14 67 53 68 26 1 43-12 49-29l28 8c-11 28-37 45-77 45C44 4 14-33 15-96c1-61 26-98 85-98zm52 81c6-60-76-77-97-28-3 7-6 17-6 28h103" id="Y"/><g id="e"><use transform="matrix(0.05,0,0,0.05,0,0)" xlink:href="#V"/><use transform="matrix(0.05,0,0,0.05,9,0)" xlink:href="#R"/><use transform="matrix(0.05,0,0,0.05,19,0)" xlink:href="#W"/><use transform="matrix(0.05,0,0,0.05,29,0)" xlink:href="#S"/><use transform="matrix(0.05,0,0,0.05,34,0)" xlink:href="#T"/><use transform="matrix(0.05,0,0,0.05,39.95,0)" xlink:href="#R"/><use transform="matrix(0.05,0,0,0.05,49.95,0)" xlink:href="#X"/><use transform="matrix(0.05,0,0,0.05,53.900000000000006,0)" xlink:href="#X"/><use transform="matrix(0.05,0,0,0.05,57.85,0)" xlink:href="#Y"/><use transform="matrix(0.05,0,0,0.05,67.85000000000001,0)" xlink:href="#T"/></g><path d="M33 0v-248h34V0H33" id="Z"/><path d="M101-251c82-7 93 87 43 132L82-64C71-53 59-42 53-27h129V0H18c2-99 128-94 128-182 0-28-16-43-45-43s-46 15-49 41l-32-3c6-41 34-60 81-64" id="aa"/><path d="M212-179c-10-28-35-45-73-45-59 0-87 40-87 99 0 60 29 101 89 101 43 0 62-24 78-52l27 14C228-24 195 4 139 4 59 4 22-46 18-125c-6-104 99-153 187-111 19 9 31 26 39 46" id="ab"/><g id="g"><use transform="matrix(0.05,0,0,0.05,0,0)" xlink:href="#Z"/><use transform="matrix(0.034999999999999996,0,0,0.034999999999999996,5,-5.039999999999999)" xlink:href="#aa"/><use transform="matrix(0.05,0,0,0.05,12,0)" xlink:href="#ab"/></g><path d="M101-234c-31-9-42 10-38 44h38v23H63V0H32v-167H5v-23h27c-7-52 17-82 69-68v24" id="ac"/><g id="h"><use transform="matrix(0.05,0,0,0.05,0,0)" xlink:href="#P"/><use transform="matrix(0.05,0,0,0.05,10,0)" xlink:href="#Y"/><use transform="matrix(0.05,0,0,0.05,20,0)" xlink:href="#ac"/><use transform="matrix(0.05,0,0,0.05,25,0)" xlink:href="#S"/></g><g id="i"><use transform="matrix(0.05,0,0,0.05,0,0)" xlink:href="#G"/><use transform="matrix(0.05,0,0,0.05,14.950000000000001,0)" xlink:href="#R"/><use transform="matrix(0.05,0,0,0.05,24.950000000000003,0)" xlink:href="#S"/><use transform="matrix(0.05,0,0,0.05,29.950000000000003,0)" xlink:href="#R"/><use transform="matrix(0.05,0,0,0.05,39.95,0)" xlink:href="#T"/><use transform="matrix(0.05,0,0,0.05,45.900000000000006,0)" xlink:href="#U"/></g><path d="M24-231v-30h32v30H24zM24 0v-190h32V0H24" id="ad"/><path d="M177-190C167-65 218 103 67 71c-23-6-38-20-44-43l32-5c15 47 100 32 89-28v-30C133-14 115 1 83 1 29 1 15-40 15-95c0-56 16-97 71-98 29-1 48 16 59 35 1-10 0-23 2-32h30zM94-22c36 0 50-32 50-73 0-42-14-75-50-75-39 0-46 34-46 75s6 73 46 73" id="ae"/><path d="M106-169C34-169 62-67 57 0H25v-261h32l-1 103c12-21 28-36 61-36 89 0 53 116 60 194h-32v-121c2-32-8-49-39-48" id="af"/><g id="j"><use transform="matrix(0.05,0,0,0.05,0,0)" xlink:href="#J"/><use transform="matrix(0.05,0,0,0.05,12.950000000000001,0)" xlink:href="#ad"/><use transform="matrix(0.05,0,0,0.05,16.900000000000002,0)" xlink:href="#ae"/><use transform="matrix(0.05,0,0,0.05,26.900000000000002,0)" xlink:href="#af"/><use transform="matrix(0.05,0,0,0.05,36.900000000000006,0)" xlink:href="#S"/></g><path d="M85-194c31 0 48 13 60 33l-1-100h32l1 261h-30c-2-10 0-23-3-31C134-8 116 4 85 4 32 4 16-35 15-94c0-66 23-100 70-100zm9 24c-40 0-46 34-46 75 0 40 6 74 45 74 42 0 51-32 51-76 0-42-9-74-50-73" id="ag"/><g id="k"><use transform="matrix(0.05,0,0,0.05,0,0)" xlink:href="#N"/><use transform="matrix(0.05,0,0,0.05,12,0)" xlink:href="#W"/><use transform="matrix(0.05,0,0,0.05,22,0)" xlink:href="#V"/><use transform="matrix(0.05,0,0,0.05,31,0)" xlink:href="#R"/><use transform="matrix(0.05,0,0,0.05,41,0)" xlink:href="#ag"/><use transform="matrix(0.05,0,0,0.05,51,0)" xlink:href="#Y"/><use transform="matrix(0.05,0,0,0.05,61,0)" xlink:href="#T"/><use transform="matrix(0.05,0,0,0.05,66.95,0)" xlink:href="#U"/></g><g id="l"><use transform="matrix(0.05,0,0,0.05,0,0)" xlink:href="#G"/><use transform="matrix(0.05,0,0,0.05,14.950000000000001,0)" xlink:href="#R"/><use transform="matrix(0.05,0,0,0.05,24.950000000000003,0)" xlink:href="#S"/><use transform="matrix(0.05,0,0,0.05,29.950000000000003,0)" xlink:href="#ad"/><use transform="matrix(0.05,0,0,0.05,33.900000000000006,0)" xlink:href="#R"/><use transform="matrix(0.05,0,0,0.05,43.900000000000006,0)" xlink:href="#W"/></g><g id="m"><use transform="matrix(0.05,0,0,0.05,0,0)" xlink:href="#ab"/><use transform="matrix(0.05,0,0,0.05,12.950000000000001,0)" xlink:href="#R"/><use transform="matrix(0.05,0,0,0.05,22.950000000000003,0)" xlink:href="#W"/><use transform="matrix(0.05,0,0,0.05,32.95,0)" xlink:href="#S"/><use transform="matrix(0.05,0,0,0.05,37.95,0)" xlink:href="#T"/><use transform="matrix(0.05,0,0,0.05,43.900000000000006,0)" xlink:href="#R"/><use transform="matrix(0.05,0,0,0.05,53.900000000000006,0)" xlink:href="#X"/></g><path d="M179-190L93 31C79 59 56 82 12 73V49c39 6 53-20 64-50L1-190h34L92-34l54-156h33" id="ah"/><path d="M210-169c-67 3-38 105-44 169h-31v-121c0-29-5-50-35-48C34-165 62-65 56 0H25l-1-190h30c1 10-1 24 2 32 10-44 99-50 107 0 11-21 27-35 58-36 85-2 47 119 55 194h-31v-121c0-29-5-49-35-48" id="ai"/><g id="n"><use transform="matrix(0.05,0,0,0.05,0,0)" xlink:href="#K"/><use transform="matrix(0.05,0,0,0.05,12,0)" xlink:href="#ah"/><use transform="matrix(0.05,0,0,0.05,21,0)" xlink:href="#U"/><use transform="matrix(0.05,0,0,0.05,30,0)" xlink:href="#S"/><use transform="matrix(0.05,0,0,0.05,35,0)" xlink:href="#Y"/><use transform="matrix(0.05,0,0,0.05,45,0)" xlink:href="#ai"/></g><path d="M141-36C126-15 110 5 73 4 37 3 15-17 15-53c-1-64 63-63 125-63 3-35-9-54-41-54-24 1-41 7-42 31l-33-3c5-37 33-52 76-52 45 0 72 20 72 64v82c-1 20 7 32 28 27v20c-31 9-61-2-59-35zM48-53c0 20 12 33 32 33 41-3 63-29 60-74-43 2-92-5-92 41" id="aj"/><g id="o"><use transform="matrix(0.05,0,0,0.05,0,0)" xlink:href="#aj"/><use transform="matrix(0.05,0,0,0.05,10,0)" xlink:href="#W"/><use transform="matrix(0.05,0,0,0.05,20,0)" xlink:href="#ag"/></g><g id="p"><use transform="matrix(0.05,0,0,0.05,0,0)" xlink:href="#ad"/><use transform="matrix(0.05,0,0,0.05,3.95,0)" xlink:href="#W"/><use transform="matrix(0.05,0,0,0.05,13.949999999999998,0)" xlink:href="#S"/><use transform="matrix(0.05,0,0,0.05,18.95,0)" xlink:href="#Y"/><use transform="matrix(0.05,0,0,0.05,28.950000000000003,0)" xlink:href="#T"/><use transform="matrix(0.05,0,0,0.05,34.9,0)" xlink:href="#ac"/><use transform="matrix(0.05,0,0,0.05,39.9,0)" xlink:href="#aj"/><use transform="matrix(0.05,0,0,0.05,49.9,0)" xlink:href="#V"/><use transform="matrix(0.05,0,0,0.05,58.900000000000006,0)" xlink:href="#Y"/></g><path d="M205 0l-28-72H64L36 0H1l101-248h38L239 0h-34zm-38-99l-47-123c-12 45-31 82-46 123h93" id="ak"/><path d="M16-82v-28h88v28H16" id="al"/><path d="M115-194c53 0 69 39 70 98 0 66-23 100-70 100C84 3 66-7 56-30L54 0H23l1-261h32v101c10-23 28-34 59-34zm-8 174c40 0 45-34 45-75 0-40-5-75-45-74-42 0-51 32-51 76 0 43 10 73 51 73" id="am"/><path d="M84 4C-5 8 30-112 23-190h32v120c0 31 7 50 39 49 72-2 45-101 50-169h31l1 190h-30c-1-10 1-25-2-33-11 22-28 36-60 37" id="an"/><path d="M115-194c55 1 70 41 70 98S169 2 115 4C84 4 66-9 55-30l1 105H24l-1-265h31l2 30c10-21 28-34 59-34zm-8 174c40 0 45-34 45-75s-6-73-45-74c-42 0-51 32-51 76 0 43 10 73 51 73" id="ao"/><g id="q"><use transform="matrix(0.05,0,0,0.05,0,0)" xlink:href="#ak"/><use transform="matrix(0.05,0,0,0.05,12,0)" xlink:href="#W"/><use transform="matrix(0.05,0,0,0.05,22,0)" xlink:href="#S"/><use transform="matrix(0.05,0,0,0.05,27,0)" xlink:href="#ad"/><use transform="matrix(0.05,0,0,0.05,30.950000000000003,0)" xlink:href="#al"/><use transform="matrix(0.05,0,0,0.05,36.9,0)" xlink:href="#am"/><use transform="matrix(0.05,0,0,0.05,46.9,0)" xlink:href="#an"/><use transform="matrix(0.05,0,0,0.05,56.900000000000006,0)" xlink:href="#ai"/><use transform="matrix(0.05,0,0,0.05,71.85,0)" xlink:href="#ao"/></g><g id="r"><use transform="matrix(0.05,0,0,0.05,0,0)" xlink:href="#U"/><use transform="matrix(0.05,0,0,0.05,9,0)" xlink:href="#Y"/><use transform="matrix(0.05,0,0,0.05,19,0)" xlink:href="#W"/><use transform="matrix(0.05,0,0,0.05,29,0)" xlink:href="#U"/><use transform="matrix(0.05,0,0,0.05,38,0)" xlink:href="#ad"/><use transform="matrix(0.05,0,0,0.05,41.95,0)" xlink:href="#W"/><use transform="matrix(0.05,0,0,0.05,51.95,0)" xlink:href="#ae"/></g><g id="s"><use transform="matrix(0.05,0,0,0.05,0,0)" xlink:href="#ak"/><use transform="matrix(0.05,0,0,0.05,12,0)" xlink:href="#W"/><use transform="matrix(0.05,0,0,0.05,22,0)" xlink:href="#S"/><use transform="matrix(0.05,0,0,0.05,27,0)" xlink:href="#ad"/><use transform="matrix(0.05,0,0,0.05,30.950000000000003,0)" xlink:href="#al"/><use transform="matrix(0.05,0,0,0.05,36.9,0)" xlink:href="#ac"/><use transform="matrix(0.05,0,0,0.05,41.9,0)" xlink:href="#aj"/><use transform="matrix(0.05,0,0,0.05,51.900000000000006,0)" xlink:href="#X"/><use transform="matrix(0.05,0,0,0.05,55.85,0)" xlink:href="#X"/></g><g id="u"><use transform="matrix(0.05,0,0,0.05,0,0)" xlink:href="#U"/><use transform="matrix(0.05,0,0,0.05,9,0)" xlink:href="#Y"/><use transform="matrix(0.05,0,0,0.05,19,0)" xlink:href="#W"/><use transform="matrix(0.05,0,0,0.05,29,0)" xlink:href="#U"/><use transform="matrix(0.05,0,0,0.05,38,0)" xlink:href="#ad"/><use transform="matrix(0.05,0,0,0.05,41.95,0)" xlink:href="#W"/><use transform="matrix(0.05,0,0,0.05,51.95,0)" xlink:href="#ae"/></g><g id="v"><use transform="matrix(0.05,0,0,0.05,0,0)" xlink:href="#ab"/><use transform="matrix(0.05,0,0,0.05,12.950000000000001,0)" xlink:href="#Y"/><use transform="matrix(0.05,0,0,0.05,22.950000000000003,0)" xlink:href="#ad"/><use transform="matrix(0.05,0,0,0.05,26.900000000000002,0)" xlink:href="#X"/><use transform="matrix(0.05,0,0,0.05,30.85,0)" xlink:href="#ad"/><use transform="matrix(0.05,0,0,0.05,34.800000000000004,0)" xlink:href="#W"/><use transform="matrix(0.05,0,0,0.05,44.800000000000004,0)" xlink:href="#ae"/></g><g id="w"><use transform="matrix(0.05,0,0,0.05,0,0)" xlink:href="#V"/><use transform="matrix(0.05,0,0,0.05,9,0)" xlink:href="#X"/><use transform="matrix(0.05,0,0,0.05,12.949999999999998,0)" xlink:href="#Y"/><use transform="matrix(0.05,0,0,0.05,22.95,0)" xlink:href="#aj"/><use transform="matrix(0.05,0,0,0.05,32.95,0)" xlink:href="#T"/><use transform="matrix(0.05,0,0,0.05,38.900000000000006,0)" xlink:href="#aj"/><use transform="matrix(0.05,0,0,0.05,48.900000000000006,0)" xlink:href="#W"/><use transform="matrix(0.05,0,0,0.05,58.900000000000006,0)" xlink:href="#V"/><use transform="matrix(0.05,0,0,0.05,67.9,0)" xlink:href="#Y"/></g><path d="M190 0L58-211 59 0H30v-248h39L202-35l-2-213h31V0h-41" id="ap"/><path d="M206 0h-36l-40-164L89 0H53L-1-190h32L70-26l43-164h34l41 164 42-164h31" id="aq"/><g id="x"><use transform="matrix(0.05,0,0,0.05,0,0)" xlink:href="#ap"/><use transform="matrix(0.05,0,0,0.05,12.950000000000001,0)" xlink:href="#aj"/><use transform="matrix(0.05,0,0,0.05,22.950000000000003,0)" xlink:href="#T"/><use transform="matrix(0.05,0,0,0.05,28.900000000000002,0)" xlink:href="#T"/><use transform="matrix(0.05,0,0,0.05,34.85,0)" xlink:href="#R"/><use transform="matrix(0.05,0,0,0.05,44.85,0)" xlink:href="#aq"/></g><g id="y"><use transform="matrix(0.05,0,0,0.05,0,0)" xlink:href="#ao"/><use transform="matrix(0.05,0,0,0.05,10,0)" xlink:href="#aj"/><use transform="matrix(0.05,0,0,0.05,20,0)" xlink:href="#U"/><use transform="matrix(0.05,0,0,0.05,29,0)" xlink:href="#U"/><use transform="matrix(0.05,0,0,0.05,38,0)" xlink:href="#aj"/><use transform="matrix(0.05,0,0,0.05,48,0)" xlink:href="#ae"/><use transform="matrix(0.05,0,0,0.05,58,0)" xlink:href="#Y"/></g><path d="M63-220v92h138v28H63V0H30v-248h175v28H63" id="ar"/><g id="z"><use transform="matrix(0.05,0,0,0.05,0,0)" xlink:href="#ar"/><use transform="matrix(0.05,0,0,0.05,10.950000000000001,0)" xlink:href="#X"/><use transform="matrix(0.05,0,0,0.05,14.9,0)" xlink:href="#R"/><use transform="matrix(0.05,0,0,0.05,24.900000000000002,0)" xlink:href="#R"/><use transform="matrix(0.05,0,0,0.05,34.900000000000006,0)" xlink:href="#ag"/></g><g id="A"><use transform="matrix(0.05,0,0,0.05,0,0)" xlink:href="#I"/><use transform="matrix(0.05,0,0,0.05,10.3,0)" xlink:href="#ad"/><use transform="matrix(0.05,0,0,0.05,14.25,0)" xlink:href="#X"/><use transform="matrix(0.05,0,0,0.05,18.2,0)" xlink:href="#S"/></g><g id="B"><use transform="matrix(0.05,0,0,0.05,0,0)" xlink:href="#T"/><use transform="matrix(0.05,0,0,0.05,5.95,0)" xlink:href="#R"/><use transform="matrix(0.05,0,0,0.05,15.949999999999998,0)" xlink:href="#X"/><use transform="matrix(0.05,0,0,0.05,19.9,0)" xlink:href="#X"/></g><g id="C"><use transform="matrix(0.05,0,0,0.05,0,0)" xlink:href="#Z"/><use transform="matrix(0.034999999999999996,0,0,0.034999999999999996,5,-5.039999999999999)" xlink:href="#aa"/><use transform="matrix(0.05,0,0,0.05,12,0)" xlink:href="#ab"/></g><path d="M0 4l72-265h28L28 4H0" id="as"/><use transform="matrix(0.05,0,0,0.05,0,0)" xlink:href="#as" id="D"/><g id="E"><use transform="matrix(0.05,0,0,0.05,0,0)" xlink:href="#O"/><use transform="matrix(0.05,0,0,0.05,12.950000000000001,0)" xlink:href="#ak"/><use transform="matrix(0.05,0,0,0.05,24.950000000000003,0)" xlink:href="#J"/><use transform="matrix(0.05,0,0,0.05,37.550000000000004,0)" xlink:href="#I"/></g><path d="M143 4C61 4 22-44 18-125c-5-107 100-154 193-111 17 8 29 25 37 43l-32 9c-13-25-37-40-76-40-61 0-88 39-88 99 0 61 29 100 91 101 35 0 62-11 79-27v-45h-74v-28h105v86C228-13 192 4 143 4" id="at"/><g id="F"><use transform="matrix(0.05,0,0,0.05,0,0)" xlink:href="#at"/><use transform="matrix(0.05,0,0,0.05,14,0)" xlink:href="#L"/><use transform="matrix(0.05,0,0,0.05,26,0)" xlink:href="#Z"/><use transform="matrix(0.05,0,0,0.05,31,0)" xlink:href="#H"/><use transform="matrix(0.05,0,0,0.05,45,0)" xlink:href="#U"/></g></defs></g></svg>