<svg xmlns="http://www.w3.org/2000/svg" xmlns:xlink="http://www.w3.org/1999/xlink" xmlns:lucid="lucid" width="1560" height="800"><g transform="translate(-260 -320)" lucid:page-tab-id="0_0"><path d="M465 805c0-2.76 2.24-5 5-5h292.22c2.76 0 5 2.24 5 5v110c0 2.76-2.24 5-5 5H470c-2.76 0-5-2.24-5-5z" stroke="#000" stroke-width="2" fill="#fff"/><use xlink:href="#a" transform="matrix(1,0,0,1,470,805) translate(76.57499999999999 58.6)"/><use xlink:href="#b" transform="matrix(1,0,0,1,470,805) translate(159.475 58.6)"/><path d="M980 695c0-2.76 2.24-5 5-5h142.22c2.76 0 5 2.24 5 5v50c0 2.76-2.24 5-5 5H985c-2.76 0-5-2.24-5-5z" stroke="#000" stroke-width="2" fill="#fff"/><use xlink:href="#c" transform="matrix(1,0,0,1,985,695) translate(15.524999999999999 28.6)"/><use xlink:href="#d" transform="matrix(1,0,0,1,985,695) translate(77.475 28.6)"/><path d="M465 985c0-2.76 2.24-5 5-5h292.22c2.76 0 5 2.24 5 5v110c0 2.76-2.24 5-5 5H470c-2.76 0-5-2.24-5-5z" stroke="#000" stroke-width="2" fill="#fff"/><use xlink:href="#e" transform="matrix(1,0,0,1,470,985) translate(114.05 58.6)"/><use xlink:href="#f" transform="matrix(1,0,0,1,470,985) translate(143.05 58.6)"/><path d="M616.1 979v-39.76" stroke="#000" stroke-width="2" fill="none"/><path d="M617.1 980h-2v-1h2zM620.75 938.5h-9.27l4.63-14.26z"/><path d="M622.12 939.5H610.1l6-18.5zm-9.27-2h6.52l-3.26-10.03z"/><path d="M980 545c0-2.76 2.24-5 5-5h292.22c2.76 0 5 2.24 5 5v110c0 2.76-2.24 5-5 5H985c-2.76 0-5-2.24-5-5z" stroke="#000" stroke-width="2" fill="#fff"/><use xlink:href="#g" transform="matrix(1,0,0,1,985,545) translate(51.675 58.6)"/><use xlink:href="#h" transform="matrix(1,0,0,1,985,545) translate(114.42500000000001 58.6)"/><use xlink:href="#i" transform="matrix(1,0,0,1,985,545) translate(157.425 58.6)"/><path d="M880 340h140v60H880z" fill="none"/><path d="M880 382h42c0 4.87 3.13 8 7 8s7-3.13 7-7-3.13-7-7-7-7 3.13-7 7m14-1l37.8-24m4.2 24c0 4.87 3.13 8 7 8s7-3.13 7-7-3.13-7-7-7-7 3.13-7 7m14-1h28" stroke="#000" stroke-width="5" fill="#fff"/><path d="M300 545c0-2.76 2.24-5 5-5h292.22c2.76 0 5 2.24 5 5v110c0 2.76-2.24 5-5 5H305c-2.76 0-5-2.24-5-5z" stroke="#000" stroke-width="2" fill="#fff"/><path d="M500 799V679.24" stroke="#000" stroke-width="2" fill="none"/><path d="M501 800h-2v-1h2zM504.64 678.5h-9.28l4.64-14.26z"/><path d="M506 679.5h-12l6-18.5zm-9.26-2h6.52L500 667.47z"/><path d="M320 540h100v90H320z" fill="none"/><path d="M320 585h40m0 18v-36m10 27v-18m10 27v-36m10 27v-18m0 9h30" stroke="#000" stroke-width="2" fill="#fff"/><use xlink:href="#j" transform="matrix(1,0,0,1,320,610.2) translate(14.5 14.4)"/><use xlink:href="#k" transform="matrix(1,0,0,1,320,610.2) translate(29.5 14.4)"/><use xlink:href="#l" transform="matrix(1,0,0,1,320,610.2) translate(43.5 14.4)"/><use xlink:href="#m" transform="matrix(1,0,0,1,320,610.2) translate(73.5 14.4)"/><use xlink:href="#n" transform="matrix(1,0,0,1,320,610.2) translate(6.524999999999999 36)"/><use xlink:href="#o" transform="matrix(1,0,0,1,320,610.2) translate(51.525 36)"/><path d="M475 560h100v80H475z" stroke="#fff" stroke-width="2" fill="#fff"/><use xlink:href="#p" transform="matrix(1,0,0,1,480,565) translate(22.049999999999997 27.799999999999997)"/><use xlink:href="#q" transform="matrix(1,0,0,1,480,565) translate(16.525 49.4)"/><path d="M630 545c0-2.76 2.24-5 5-5h292.22c2.76 0 5 2.24 5 5v110c0 2.76-2.24 5-5 5H635c-2.76 0-5-2.24-5-5z" stroke="#000" stroke-width="2" fill="#fff"/><path d="M650 540h100v90H650z" fill="none"/><path d="M650 585h40m0 18v-36m10 27v-18m10 27v-36m10 27v-18m0 9h30" stroke="#000" stroke-width="2" fill="#fff"/><use xlink:href="#r" transform="matrix(1,0,0,1,650,610.2) translate(29 14.4)"/><use xlink:href="#m" transform="matrix(1,0,0,1,650,610.2) translate(59 14.4)"/><use xlink:href="#n" transform="matrix(1,0,0,1,650,610.2) translate(6.524999999999999 36)"/><use xlink:href="#o" transform="matrix(1,0,0,1,650,610.2) translate(51.525 36)"/><path d="M805 560h100v80H805z" stroke="#fff" stroke-width="2" fill="#fff"/><use xlink:href="#s" transform="matrix(1,0,0,1,810,565) translate(-2.3999999999999986 27.799999999999997)"/><use xlink:href="#q" transform="matrix(1,0,0,1,810,565) translate(16.525 49.4)"/><path d="M880 440h140v60H880z" fill="none"/><path d="M880 482h42c0 4.87 3.13 8 7 8s7-3.13 7-7-3.13-7-7-7-7 3.13-7 7m14-1l37.8-24m4.2 24c0 4.87 3.13 8 7 8s7-3.13 7-7-3.13-7-7-7-7 3.13-7 7m14-1h28" stroke="#000" stroke-width="5" fill="#fff"/><path d="M880 382H451.1v157" stroke="#000" stroke-width="5" fill="none"/><path/><path d="M453.6 540h-5v-1h5z"/><path d="M1020 382h420v8h156.9" stroke="#000" stroke-width="5" fill="none"/><path/><path d="M1611.9 390l-14.26 4.64v-9.28z" fill="#fff"/><path d="M1620 390l-24.86 8.08v-16.16zm-19.86 1.2l3.68-1.2-3.68-1.2z"/><path d="M1020 482h111.1v57" stroke="#000" stroke-width="5" fill="none"/><path/><path d="M1133.6 540h-5v-1h5z"/><path d="M781.1 539v-57H880" stroke="#000" stroke-width="5" fill="none"/><path d="M783.6 540h-5v-1h5z"/><path/><path d="M1283.22 568h168.4v-48h145.3" stroke="#000" stroke-width="5" fill="none"/><path d="M1283.22 570.5h-1v-5h1z"/><path d="M1611.9 520l-14.26 4.64v-9.28z" fill="#fff"/><path d="M1620 520l-24.86 8.08v-16.16zm-19.86 1.2l3.68-1.2-3.68-1.2z"/><path d="M1283.22 630h313.7" stroke="#000" stroke-width="5" fill="none"/><path d="M1283.22 632.5h-1v-5h1z"/><path d="M1611.9 630l-14.26 4.64v-9.28z" fill="#fff"/><path d="M1620 630l-24.86 8.08v-16.16zm-19.86 1.2l3.68-1.2-3.68-1.2z"/><path d="M1620 360h180v60h-180z" stroke="#000" stroke-opacity="0" stroke-width="2" fill="#fff" fill-opacity="0"/><use xlink:href="#t" transform="matrix(1,0,0,1,1625,365) translate(0 28.6)"/><use xlink:href="#u" transform="matrix(1,0,0,1,1625,365) translate(10 28.6)"/><use xlink:href="#v" transform="matrix(1,0,0,1,1625,365) translate(52 28.6)"/><use xlink:href="#w" transform="matrix(1,0,0,1,1625,365) translate(88 28.6)"/><path d="M1620 490h180v60h-180z" stroke="#000" stroke-opacity="0" stroke-width="2" fill="#fff" fill-opacity="0"/><use xlink:href="#t" transform="matrix(1,0,0,1,1625,495) translate(0 28.6)"/><use xlink:href="#x" transform="matrix(1,0,0,1,1625,495) translate(10 28.6)"/><use xlink:href="#y" transform="matrix(1,0,0,1,1625,495) translate(52 28.6)"/><path d="M1620 600h180v60h-180z" stroke="#000" stroke-opacity="0" stroke-width="2" fill="#fff" fill-opacity="0"/><use xlink:href="#t" transform="matrix(1,0,0,1,1625,605) translate(0 28.6)"/><use xlink:href="#z" transform="matrix(1,0,0,1,1625,605) translate(10 28.6)"/><use xlink:href="#y" transform="matrix(1,0,0,1,1625,605) translate(52 28.6)"/><path d="M340 860h100.9" stroke="#000" stroke-width="5" fill="none"/><path/><path d="M455.9 860l-14.26 4.64v-9.28z"/><path d="M464 860l-24.86 8.08v-16.16zm-19.86 1.2l3.68-1.2-3.68-1.2z"/><path d="M1360 365c0-2.76 2.24-5 5-5h127.78c2.76 0 5 2.24 5 5v290c0 2.76-2.24 5-5 5H1365c-2.76 0-5-2.24-5-5z" stroke="#000" stroke-width="2" fill="#fff"/><use xlink:href="#A" transform="matrix(1,0,0,1,1365,365) translate(34.075 127)"/><use xlink:href="#B" transform="matrix(1,0,0,1,1365,365) translate(29.124999999999993 148.6)"/><use xlink:href="#C" transform="matrix(1,0,0,1,1365,365) translate(40 170.20000000000002)"/><path d="M721.33 799V679.24" stroke="#000" stroke-width="2" fill="none"/><path d="M722.33 800h-2v-1h2zM725.97 678.5h-9.27l4.63-14.26z"/><path d="M727.35 679.5h-12.03l6-18.5zm-9.28-2h6.52l-3.27-10.03z"/><path d="M980 785c0-2.76 2.24-5 5-5h142.22c2.76 0 5 2.24 5 5v50c0 2.76-2.24 5-5 5H985c-2.76 0-5-2.24-5-5z" stroke="#000" stroke-width="2" fill="#fff"/><use xlink:href="#c" transform="matrix(1,0,0,1,985,785) translate(15.524999999999999 28.6)"/><use xlink:href="#d" transform="matrix(1,0,0,1,985,785) translate(77.475 28.6)"/><path d="M882.67 661v59h78.1" stroke="#000" stroke-width="2" fill="none"/><path d="M883.67 661h-2v-1h2zM975.76 720l-14.26 4.64v-9.28z"/><path d="M979 720l-18.5 6v-12zm-16.5 3.26l10.03-3.26-10.03-3.26z"/><path d="M566.67 661v99H850v50h110.76" stroke="#000" stroke-width="2" fill="none"/><path d="M567.67 661h-2v-1h2zM975.76 810l-14.26 4.64v-9.28z"/><path d="M979 810l-18.5 6v-12zm-16.5 3.26l10.03-3.26-10.03-3.26z"/><path d="M1195.56 695c0-2.76 2.23-5 5-5h292.22c2.76 0 5 2.24 5 5v220c0 2.76-2.24 5-5 5h-292.22c-2.77 0-5-2.24-5-5z" stroke="#000" stroke-width="2" fill="#fff"/><use xlink:href="#D" transform="matrix(1,0,0,1,1200.5555555555557,695) translate(35.125 102.80000000000001)"/><use xlink:href="#E" transform="matrix(1,0,0,1,1200.5555555555557,695) translate(91.025 102.80000000000001)"/><use xlink:href="#F" transform="matrix(1,0,0,1,1200.5555555555557,695) translate(200.925 102.80000000000001)"/><use xlink:href="#G" transform="matrix(1,0,0,1,1200.5555555555557,695) translate(44.14999999999999 124.4)"/><use xlink:href="#H" transform="matrix(1,0,0,1,1200.5555555555557,695) translate(118.05 124.4)"/><use xlink:href="#I" transform="matrix(1,0,0,1,1200.5555555555557,695) translate(153.05 124.4)"/><use xlink:href="#J" transform="matrix(1,0,0,1,1200.5555555555557,695) translate(211.95 124.4)"/><path d="M1133.22 720h43.1" stroke="#000" stroke-width="2" fill="none"/><path d="M1133.22 721h-1v-2h1zM1191.32 720l-14.27 4.64v-9.28z"/><path d="M1194.56 720l-18.5 6v-12zm-16.5 3.26l10.02-3.26-10.03-3.26z"/><path d="M1133.22 810h43.1" stroke="#000" stroke-width="2" fill="none"/><path d="M1133.22 811h-1v-2h1zM1191.32 810l-14.27 4.64v-9.28z"/><path d="M1194.56 810l-18.5 6v-12zm-16.5 3.26l10.02-3.26-10.03-3.26z"/><path d="M1500.74 805h117.3" stroke="#000" stroke-width="2" fill="none"/><path d="M1518.47 795.68L1502.7 805l15.77 9.32-1.02 1.72-18.67-11.04 18.67-11.04zM1620 805l-18.67 11.04-1.02-1.72 15.77-9.32-15.76-9.32 1.03-1.72z"/><path d="M1620 775h80v60h-80z" stroke="#000" stroke-opacity="0" stroke-width="2" fill="#fff" fill-opacity="0"/><use xlink:href="#t" transform="matrix(1,0,0,1,1625,780) translate(0 28.6)"/><use xlink:href="#K" transform="matrix(1,0,0,1,1625,780) translate(10 28.6)"/><path d="M980 875c0-2.76 2.24-5 5-5h142.22c2.76 0 5 2.24 5 5v50c0 2.76-2.24 5-5 5H985c-2.76 0-5-2.24-5-5z" stroke="#000" stroke-width="2" fill="#fff"/><use xlink:href="#e" transform="matrix(1,0,0,1,985,875) translate(33 28.6)"/><use xlink:href="#L" transform="matrix(1,0,0,1,985,875) translate(62 28.6)"/><path d="M616.1 979v-19H850v-60h110.76" stroke="#000" stroke-width="2" fill="none"/><path d="M617.1 980h-2v-1h2zM975.76 900l-14.26 4.64v-9.28z"/><path d="M979 900l-18.5 6v-12zm-16.5 3.26l10.03-3.26-10.03-3.26z"/><path d="M1133.22 900h43.1" stroke="#000" stroke-width="2" fill="none"/><path d="M1133.22 901h-1v-2h1zM1191.32 900l-14.27 4.64v-9.28z"/><path d="M1194.56 900l-18.5 6v-12zm-16.5 3.26l10.02-3.26-10.03-3.26z"/><path d="M1428.9 661v9.76" stroke="#000" stroke-width="2" fill="none"/><path d="M1429.9 661h-2v-1h2zM1428.9 685.76l-4.65-14.26h9.27z"/><path d="M1428.9 689l-6.02-18.5h12.02zm-3.27-16.5l3.26 10.03 3.25-10.03z"/><path d="M280 830h60v60h-60z" stroke="#000" stroke-opacity="0" stroke-width="2" fill="#fff" fill-opacity="0"/><g><use xlink:href="#M" transform="matrix(1,0,0,1,285,835) translate(19 28.6)"/></g><path d="M1282.22 985c0-2.76 2.24-5 5-5h205.56c2.76 0 5 2.24 5 5v110c0 2.76-2.24 5-5 5h-205.56c-2.76 0-5-2.24-5-5z" stroke="#000" stroke-width="2" fill="#fff"/><g><use xlink:href="#N" transform="matrix(1,0,0,1,1287.2222222222222,985) translate(19.64999999999999 58.6)"/><use xlink:href="#O" transform="matrix(1,0,0,1,1287.2222222222222,985) translate(73.6 58.6)"/><use xlink:href="#P" transform="matrix(1,0,0,1,1287.2222222222222,985) translate(130.45 58.6)"/></g><path d="M1390 921v39.76" stroke="#000" stroke-width="2" fill="none"/><path d="M1391 921h-2v-1h2zM1390 975.76l-4.64-14.26h9.28z"/><path d="M1390 979l-6-18.5h12zm-3.26-16.5l3.26 10.03 3.26-10.03z"/><path d="M900 440h120v70H900z" stroke="#000" stroke-width="2" fill-opacity="0"/><path d="M1319.33 689V452h-280.1" fill="none"/><path d="M1319.33 689v-2.98m0-3.98v-5.97m0-3.98v-5.97m0-3.98v-5.97m0-3.97v-5.96m0-3.98v-5.96m0-3.98v-5.97m0-3.98v-5.96m0-3.97v-5.97m0-3.97v-5.98m0-3.98v-5.97m0-3.97v-5.97m0-3.98v-5.96m0-4v-5.96m0-3.98v-5.96m0-3.98v-5.97m0-3.97v-5.97m0-3.97v-5.96m0-3.98V507m0-3.98v-5.96m0-3.98v-5.97m0-3.97v-5.97m0-4v-5.96m0-3.97v-5.97m0-3.98V452h-4.64m-4 0h-5.95m-3.98 0h-5.97m-3.98 0h-5.96m-3.98 0h-5.97m-3.96 0h-5.97m-3.98 0H1255m-3.97 0h-5.97m-3.98 0h-5.96m-3.98 0h-5.97m-4 0h-5.95m-3.98 0h-5.97m-3.97 0h-5.97m-3.98 0h-5.96m-3.98 0h-5.97m-3.98 0h-5.97m-3.98 0h-5.97m-3.97 0h-5.96m-3.98 0h-5.97m-3.98 0h-5.97m-3.98 0h-5.96m-3.97 0h-5.97m-3.98 0h-5.96m-3.98 0h-5.97m-3.97 0h-5.97m-3.98 0h-5.96m-4 0h-5.96m-3.98 0h-5.96m-3.98 0h-2.98" stroke="#000" stroke-width="2" fill="none"/><path d="M1320.33 690h-2v-1h2zM1038.5 456.64l-14.26-4.64 14.26-4.64z"/><path d="M1039.5 458l-18.5-6 18.5-6zm-12.03-6l10.03 3.26v-6.52z"/><path d="M1091.1 400H1260v60h-168.9z" stroke="#000" stroke-opacity="0" stroke-width="2" fill="#fff" fill-opacity="0"/><g><use xlink:href="#t" transform="matrix(1,0,0,1,1096.1111111111113,405) translate(0 28.6)"/><use xlink:href="#Q" transform="matrix(1,0,0,1,1096.1111111111113,405) translate(10 28.6)"/><use xlink:href="#R" transform="matrix(1,0,0,1,1096.1111111111113,405) translate(94.95 28.6)"/></g><g><path d="M1132.22 1100h-60v-100h60z" fill="none"/><path d="M1132.22 1060h-24zm0-20h-24zm-24 30v-40h-6v40zm-6 0l-30 30v-100l30 30" stroke="#000" stroke-width="2" fill="#fff"/></g><path d="M1220 921v119h-69.54" stroke="#000" stroke-width="2" fill="none"/><path d="M1221 921h-2v-1h2zM1149.72 1044.64l-14.26-4.64 14.26-4.64z"/><path d="M1150.72 1046l-18.5-6 18.5-6zm-12.03-6l10.02 3.26v-6.52z"/><path d="M960 1012.6h92.22v74.8H960z" stroke="#000" stroke-opacity="0" stroke-width="2" fill="#fff" fill-opacity="0"/><g><use xlink:href="#S" transform="matrix(1,0,0,1,965,1017.6) translate(0 14.500000000000002)"/><use xlink:href="#T" transform="matrix(1,0,0,1,965,1017.6) translate(0 36.1)"/><use xlink:href="#U" transform="matrix(1,0,0,1,965,1017.6) translate(0 57.7)"/></g><defs><path d="M233-177c-1 41-23 64-60 70L243 0h-38l-65-103H63V0H30v-248c88 3 205-21 203 71zM63-129c60-2 137 13 137-47 0-61-80-42-137-45v92" id="V"/><path d="M100-194c63 0 86 42 84 106H49c0 40 14 67 53 68 26 1 43-12 49-29l28 8c-11 28-37 45-77 45C44 4 14-33 15-96c1-61 26-98 85-98zm52 81c6-60-76-77-97-28-3 7-6 17-6 28h103" id="W"/><path d="M96-169c-40 0-48 33-48 73s9 75 48 75c24 0 41-14 43-38l32 2c-6 37-31 61-74 61-59 0-76-41-82-99-10-93 101-131 147-64 4 7 5 14 7 22l-32 3c-4-21-16-35-41-35" id="X"/><path d="M106-169C34-169 62-67 57 0H25v-261h32l-1 103c12-21 28-36 61-36 89 0 53 116 60 194h-32v-121c2-32-8-49-39-48" id="Y"/><path d="M141-36C126-15 110 5 73 4 37 3 15-17 15-53c-1-64 63-63 125-63 3-35-9-54-41-54-24 1-41 7-42 31l-33-3c5-37 33-52 76-52 45 0 72 20 72 64v82c-1 20 7 32 28 27v20c-31 9-61-2-59-35zM48-53c0 20 12 33 32 33 41-3 63-29 60-74-43 2-92-5-92 41" id="Z"/><path d="M114-163C36-179 61-72 57 0H25l-1-190h30c1 12-1 29 2 39 6-27 23-49 58-41v29" id="aa"/><path d="M177-190C167-65 218 103 67 71c-23-6-38-20-44-43l32-5c15 47 100 32 89-28v-30C133-14 115 1 83 1 29 1 15-40 15-95c0-56 16-97 71-98 29-1 48 16 59 35 1-10 0-23 2-32h30zM94-22c36 0 50-32 50-73 0-42-14-75-50-75-39 0-46 34-46 75s6 73 46 73" id="ab"/><g id="a"><use transform="matrix(0.05,0,0,0.05,0,0)" xlink:href="#V"/><use transform="matrix(0.05,0,0,0.05,12.950000000000001,0)" xlink:href="#W"/><use transform="matrix(0.05,0,0,0.05,22.950000000000003,0)" xlink:href="#X"/><use transform="matrix(0.05,0,0,0.05,31.950000000000003,0)" xlink:href="#Y"/><use transform="matrix(0.05,0,0,0.05,41.95,0)" xlink:href="#Z"/><use transform="matrix(0.05,0,0,0.05,51.95,0)" xlink:href="#aa"/><use transform="matrix(0.05,0,0,0.05,57.900000000000006,0)" xlink:href="#ab"/><use transform="matrix(0.05,0,0,0.05,67.9,0)" xlink:href="#W"/></g><path d="M135-143c-3-34-86-38-87 0 15 53 115 12 119 90S17 21 10-45l28-5c4 36 97 45 98 0-10-56-113-15-118-90-4-57 82-63 122-42 12 7 21 19 24 35" id="ac"/><path d="M179-190L93 31C79 59 56 82 12 73V49c39 6 53-20 64-50L1-190h34L92-34l54-156h33" id="ad"/><path d="M59-47c-2 24 18 29 38 22v24C64 9 27 4 27-40v-127H5v-23h24l9-43h21v43h35v23H59v120" id="ae"/><path d="M210-169c-67 3-38 105-44 169h-31v-121c0-29-5-50-35-48C34-165 62-65 56 0H25l-1-190h30c1 10-1 24 2 32 10-44 99-50 107 0 11-21 27-35 58-36 85-2 47 119 55 194h-31v-121c0-29-5-49-35-48" id="af"/><g id="b"><use transform="matrix(0.05,0,0,0.05,0,0)" xlink:href="#ac"/><use transform="matrix(0.05,0,0,0.05,9,0)" xlink:href="#ad"/><use transform="matrix(0.05,0,0,0.05,18,0)" xlink:href="#ac"/><use transform="matrix(0.05,0,0,0.05,27,0)" xlink:href="#ae"/><use transform="matrix(0.05,0,0,0.05,32,0)" xlink:href="#W"/><use transform="matrix(0.05,0,0,0.05,42,0)" xlink:href="#af"/></g><path d="M160-131c35 5 61 23 61 61C221 17 115-2 30 0v-248c76 3 177-17 177 60 0 33-19 50-47 57zm-97-11c50-1 110 9 110-42 0-47-63-36-110-37v79zm0 115c55-2 124 14 124-45 0-56-70-42-124-44v89" id="ag"/><g id="c"><use transform="matrix(0.05,0,0,0.05,0,0)" xlink:href="#ag"/><use transform="matrix(0.05,0,0,0.05,12,0)" xlink:href="#Z"/><use transform="matrix(0.05,0,0,0.05,22,0)" xlink:href="#ae"/><use transform="matrix(0.05,0,0,0.05,27,0)" xlink:href="#ae"/><use transform="matrix(0.05,0,0,0.05,32,0)" xlink:href="#W"/><use transform="matrix(0.05,0,0,0.05,42,0)" xlink:href="#aa"/><use transform="matrix(0.05,0,0,0.05,47.95,0)" xlink:href="#ad"/></g><path d="M84 4C-5 8 30-112 23-190h32v120c0 31 7 50 39 49 72-2 45-101 50-169h31l1 190h-30c-1-10 1-25-2-33-11 22-28 36-60 37" id="ah"/><g id="d"><use transform="matrix(0.05,0,0,0.05,0,0)" xlink:href="#ab"/><use transform="matrix(0.05,0,0,0.05,10,0)" xlink:href="#Z"/><use transform="matrix(0.05,0,0,0.05,20,0)" xlink:href="#ah"/><use transform="matrix(0.05,0,0,0.05,30,0)" xlink:href="#ab"/><use transform="matrix(0.05,0,0,0.05,40,0)" xlink:href="#W"/></g><path d="M30-248c87 1 191-15 191 75 0 78-77 80-158 76V0H30v-248zm33 125c57 0 124 11 124-50 0-59-68-47-124-48v98" id="ai"/><path d="M137 0h-34L2-248h35l83 218 83-218h36" id="aj"/><g id="e"><use transform="matrix(0.05,0,0,0.05,0,0)" xlink:href="#ai"/><use transform="matrix(0.05,0,0,0.05,12,0)" xlink:href="#aj"/></g><path d="M24 0v-261h32V0H24" id="ak"/><g id="f"><use transform="matrix(0.05,0,0,0.05,0,0)" xlink:href="#X"/><use transform="matrix(0.05,0,0,0.05,9,0)" xlink:href="#W"/><use transform="matrix(0.05,0,0,0.05,19,0)" xlink:href="#ak"/><use transform="matrix(0.05,0,0,0.05,22.95,0)" xlink:href="#ak"/><use transform="matrix(0.05,0,0,0.05,26.899999999999995,0)" xlink:href="#ac"/></g><path d="M30-248c118-7 216 8 213 122C240-48 200 0 122 0H30v-248zM63-27c89 8 146-16 146-99s-60-101-146-95v194" id="al"/><path d="M212-179c-10-28-35-45-73-45-59 0-87 40-87 99 0 60 29 101 89 101 43 0 62-24 78-52l27 14C228-24 195 4 139 4 59 4 22-46 18-125c-6-104 99-153 187-111 19 9 31 26 39 46" id="am"/><path d="M16-82v-28h88v28H16" id="an"/><g id="g"><use transform="matrix(0.05,0,0,0.05,0,0)" xlink:href="#al"/><use transform="matrix(0.05,0,0,0.05,12.950000000000001,0)" xlink:href="#am"/><use transform="matrix(0.05,0,0,0.05,25.900000000000002,0)" xlink:href="#an"/><use transform="matrix(0.05,0,0,0.05,31.85,0)" xlink:href="#al"/><use transform="matrix(0.05,0,0,0.05,44.800000000000004,0)" xlink:href="#am"/></g><path d="M115-194c53 0 69 39 70 98 0 66-23 100-70 100C84 3 66-7 56-30L54 0H23l1-261h32v101c10-23 28-34 59-34zm-8 174c40 0 45-34 45-75 0-40-5-75-45-74-42 0-51 32-51 76 0 43 10 73 51 73" id="ao"/><path d="M143 0L79-87 56-68V0H24v-261h32v163l83-92h37l-77 82L181 0h-38" id="ap"/><g id="h"><use transform="matrix(0.05,0,0,0.05,0,0)" xlink:href="#ao"/><use transform="matrix(0.05,0,0,0.05,10,0)" xlink:href="#ah"/><use transform="matrix(0.05,0,0,0.05,20,0)" xlink:href="#X"/><use transform="matrix(0.05,0,0,0.05,29,0)" xlink:href="#ap"/></g><path d="M100-194c62-1 85 37 85 99 1 63-27 99-86 99S16-35 15-95c0-66 28-99 85-99zM99-20c44 1 53-31 53-75 0-43-8-75-51-75s-53 32-53 75 10 74 51 75" id="aq"/><path d="M117-194c89-4 53 116 60 194h-32v-121c0-31-8-49-39-48C34-167 62-67 57 0H25l-1-190h30c1 10-1 24 2 32 11-22 29-35 61-36" id="ar"/><path d="M108 0H70L1-190h34L89-25l56-165h34" id="as"/><g id="i"><use transform="matrix(0.05,0,0,0.05,0,0)" xlink:href="#X"/><use transform="matrix(0.05,0,0,0.05,9,0)" xlink:href="#aq"/><use transform="matrix(0.05,0,0,0.05,19,0)" xlink:href="#ar"/><use transform="matrix(0.05,0,0,0.05,29,0)" xlink:href="#as"/><use transform="matrix(0.05,0,0,0.05,38,0)" xlink:href="#W"/><use transform="matrix(0.05,0,0,0.05,48,0)" xlink:href="#aa"/><use transform="matrix(0.05,0,0,0.05,53.95,0)" xlink:href="#ae"/><use transform="matrix(0.05,0,0,0.05,58.95,0)" xlink:href="#W"/><use transform="matrix(0.05,0,0,0.05,68.95,0)" xlink:href="#aa"/><use transform="matrix(0.05,0,0,0.05,74.9,0)" xlink:href="#ac"/></g><path d="M101-251c82-7 93 87 43 132L82-64C71-53 59-42 53-27h129V0H18c2-99 128-94 128-182 0-28-16-43-45-43s-46 15-49 41l-32-3c6-41 34-60 81-64" id="at"/><use transform="matrix(0.05,0,0,0.05,0,0)" xlink:href="#at" id="j"/><path d="M141 0L90-78 38 0H4l68-98-65-92h35l48 74 47-74h35l-64 92 68 98h-35" id="au"/><use transform="matrix(0.05,0,0,0.05,0,0)" xlink:href="#au" id="k"/><path d="M64 0c3-98 48-159 88-221H18v-27h164v26C143-157 98-101 97 0H64" id="av"/><path d="M33 0v-38h34V0H33" id="aw"/><path d="M155-56V0h-30v-56H8v-25l114-167h33v167h35v25h-35zm-30-156c-27 46-58 90-88 131h88v-131" id="ax"/><g id="l"><use transform="matrix(0.05,0,0,0.05,0,0)" xlink:href="#av"/><use transform="matrix(0.05,0,0,0.05,10,0)" xlink:href="#aw"/><use transform="matrix(0.05,0,0,0.05,15,0)" xlink:href="#ax"/></g><use transform="matrix(0.05,0,0,0.05,0,0)" xlink:href="#aj" id="m"/><path d="M54-142c48-35 137-8 131 61C196 18 31 33 14-55l32-4c7 23 22 37 52 37 35-1 51-22 54-58 4-55-73-65-99-34H22l8-134h141v27H59" id="ay"/><path d="M101-251c68 0 85 55 85 127S166 4 100 4C33 4 14-52 14-124c0-73 17-127 87-127zm-1 229c47 0 54-49 54-102s-4-102-53-102c-51 0-55 48-55 102 0 53 5 102 54 102" id="az"/><g id="n"><use transform="matrix(0.05,0,0,0.05,0,0)" xlink:href="#ay"/><use transform="matrix(0.05,0,0,0.05,10,0)" xlink:href="#az"/><use transform="matrix(0.05,0,0,0.05,20,0)" xlink:href="#az"/><use transform="matrix(0.05,0,0,0.05,30,0)" xlink:href="#az"/></g><path d="M205 0l-28-72H64L36 0H1l101-248h38L239 0h-34zm-38-99l-47-123c-12 45-31 82-46 123h93" id="aA"/><path d="M0 4l72-265h28L28 4H0" id="aB"/><g id="o"><use transform="matrix(0.05,0,0,0.05,0,0)" xlink:href="#af"/><use transform="matrix(0.05,0,0,0.05,14.950000000000001,0)" xlink:href="#aA"/><use transform="matrix(0.05,0,0,0.05,26.950000000000003,0)" xlink:href="#aB"/><use transform="matrix(0.05,0,0,0.05,31.950000000000003,0)" xlink:href="#Y"/></g><path d="M240 0l2-218c-23 76-54 145-80 218h-23L58-218 59 0H30v-248h44l77 211c21-75 51-140 76-211h43V0h-30" id="aC"/><g id="p"><use transform="matrix(0.05,0,0,0.05,0,0)" xlink:href="#aC"/><use transform="matrix(0.05,0,0,0.05,14.950000000000001,0)" xlink:href="#aq"/><use transform="matrix(0.05,0,0,0.05,24.950000000000003,0)" xlink:href="#ae"/><use transform="matrix(0.05,0,0,0.05,29.950000000000003,0)" xlink:href="#aq"/><use transform="matrix(0.05,0,0,0.05,39.95,0)" xlink:href="#aa"/></g><g id="q"><use transform="matrix(0.05,0,0,0.05,0,0)" xlink:href="#ag"/><use transform="matrix(0.05,0,0,0.05,12,0)" xlink:href="#Z"/><use transform="matrix(0.05,0,0,0.05,22,0)" xlink:href="#ae"/><use transform="matrix(0.05,0,0,0.05,27,0)" xlink:href="#ae"/><use transform="matrix(0.05,0,0,0.05,32,0)" xlink:href="#W"/><use transform="matrix(0.05,0,0,0.05,42,0)" xlink:href="#aa"/><use transform="matrix(0.05,0,0,0.05,47.95,0)" xlink:href="#ad"/></g><g id="r"><use transform="matrix(0.05,0,0,0.05,0,0)" xlink:href="#av"/><use transform="matrix(0.05,0,0,0.05,10,0)" xlink:href="#aw"/><use transform="matrix(0.05,0,0,0.05,15,0)" xlink:href="#ax"/></g><path d="M185-189c-5-48-123-54-124 2 14 75 158 14 163 119 3 78-121 87-175 55-17-10-28-26-33-46l33-7c5 56 141 63 141-1 0-78-155-14-162-118-5-82 145-84 179-34 5 7 8 16 11 25" id="aD"/><g id="s"><use transform="matrix(0.05,0,0,0.05,0,0)" xlink:href="#aA"/><use transform="matrix(0.05,0,0,0.05,12,0)" xlink:href="#ak"/><use transform="matrix(0.05,0,0,0.05,15.949999999999998,0)" xlink:href="#ak"/><use transform="matrix(0.05,0,0,0.05,19.9,0)" xlink:href="#an"/><use transform="matrix(0.05,0,0,0.05,25.849999999999994,0)" xlink:href="#aD"/><use transform="matrix(0.05,0,0,0.05,37.849999999999994,0)" xlink:href="#ad"/><use transform="matrix(0.05,0,0,0.05,46.849999999999994,0)" xlink:href="#ac"/><use transform="matrix(0.05,0,0,0.05,55.849999999999994,0)" xlink:href="#ae"/><use transform="matrix(0.05,0,0,0.05,60.849999999999994,0)" xlink:href="#W"/><use transform="matrix(0.05,0,0,0.05,70.85,0)" xlink:href="#af"/><use transform="matrix(0.05,0,0,0.05,85.8,0)" xlink:href="#ac"/></g><g id="u"><use transform="matrix(0.05,0,0,0.05,0,0)" xlink:href="#av"/><use transform="matrix(0.05,0,0,0.05,10,0)" xlink:href="#aw"/><use transform="matrix(0.05,0,0,0.05,15,0)" xlink:href="#ax"/><use transform="matrix(0.05,0,0,0.05,25,0)" xlink:href="#aj"/></g><path d="M126-127c33 6 58 20 58 59 0 88-139 92-164 29-3-8-5-16-6-25l32-3c6 27 21 44 54 44 32 0 52-15 52-46 0-38-36-46-79-43v-28c39 1 72-4 72-42 0-27-17-43-46-43-28 0-47 15-49 41l-32-3c6-42 35-63 81-64 48-1 79 21 79 65 0 36-21 52-52 59" id="aE"/><g id="v"><use transform="matrix(0.05,0,0,0.05,0,0)" xlink:href="#aE"/><use transform="matrix(0.05,0,0,0.05,10,0)" xlink:href="#az"/><use transform="matrix(0.05,0,0,0.05,20,0)" xlink:href="#aA"/></g><g id="w"><use transform="matrix(0.05,0,0,0.05,0,0)" xlink:href="#af"/><use transform="matrix(0.05,0,0,0.05,14.950000000000001,0)" xlink:href="#Z"/><use transform="matrix(0.05,0,0,0.05,24.950000000000003,0)" xlink:href="#au"/></g><g id="x"><use transform="matrix(0.05,0,0,0.05,0,0)" xlink:href="#ay"/><use transform="matrix(0.05,0,0,0.05,10,0)" xlink:href="#aw"/><use transform="matrix(0.05,0,0,0.05,15,0)" xlink:href="#az"/><use transform="matrix(0.05,0,0,0.05,25,0)" xlink:href="#aj"/></g><g id="y"><use transform="matrix(0.05,0,0,0.05,0,0)" xlink:href="#aE"/><use transform="matrix(0.05,0,0,0.05,10,0)" xlink:href="#aA"/></g><g id="z"><use transform="matrix(0.05,0,0,0.05,0,0)" xlink:href="#aE"/><use transform="matrix(0.05,0,0,0.05,10,0)" xlink:href="#aw"/><use transform="matrix(0.05,0,0,0.05,15,0)" xlink:href="#aE"/><use transform="matrix(0.05,0,0,0.05,25,0)" xlink:href="#aj"/></g><g id="A"><use transform="matrix(0.05,0,0,0.05,0,0)" xlink:href="#am"/><use transform="matrix(0.05,0,0,0.05,12.950000000000001,0)" xlink:href="#ah"/><use transform="matrix(0.05,0,0,0.05,22.950000000000003,0)" xlink:href="#aa"/><use transform="matrix(0.05,0,0,0.05,28.900000000000002,0)" xlink:href="#aa"/><use transform="matrix(0.05,0,0,0.05,34.85,0)" xlink:href="#W"/><use transform="matrix(0.05,0,0,0.05,44.85,0)" xlink:href="#ar"/><use transform="matrix(0.05,0,0,0.05,54.85,0)" xlink:href="#ae"/></g><path d="M206 0h-36l-40-164L89 0H53L-1-190h32L70-26l43-164h34l41 164 42-164h31" id="aF"/><path d="M24-231v-30h32v30H24zM24 0v-190h32V0H24" id="aG"/><path d="M85-194c31 0 48 13 60 33l-1-100h32l1 261h-30c-2-10 0-23-3-31C134-8 116 4 85 4 32 4 16-35 15-94c0-66 23-100 70-100zm9 24c-40 0-46 34-46 75 0 40 6 74 45 74 42 0 51-32 51-76 0-42-9-74-50-73" id="aH"/><g id="B"><use transform="matrix(0.05,0,0,0.05,0,0)" xlink:href="#aF"/><use transform="matrix(0.05,0,0,0.05,12.950000000000001,0)" xlink:href="#aG"/><use transform="matrix(0.05,0,0,0.05,16.900000000000002,0)" xlink:href="#aH"/><use transform="matrix(0.05,0,0,0.05,26.900000000000002,0)" xlink:href="#aa"/><use transform="matrix(0.05,0,0,0.05,32.85,0)" xlink:href="#Z"/><use transform="matrix(0.05,0,0,0.05,42.85,0)" xlink:href="#aF"/><use transform="matrix(0.05,0,0,0.05,55.800000000000004,0)" xlink:href="#Z"/><use transform="matrix(0.05,0,0,0.05,65.80000000000001,0)" xlink:href="#ak"/></g><g id="C"><use transform="matrix(0.05,0,0,0.05,0,0)" xlink:href="#ac"/><use transform="matrix(0.05,0,0,0.05,9,0)" xlink:href="#W"/><use transform="matrix(0.05,0,0,0.05,19,0)" xlink:href="#ar"/><use transform="matrix(0.05,0,0,0.05,29,0)" xlink:href="#ac"/><use transform="matrix(0.05,0,0,0.05,38,0)" xlink:href="#W"/></g><g id="D"><use transform="matrix(0.05,0,0,0.05,0,0)" xlink:href="#ai"/><use transform="matrix(0.05,0,0,0.05,12,0)" xlink:href="#aq"/><use transform="matrix(0.05,0,0,0.05,22,0)" xlink:href="#aF"/><use transform="matrix(0.05,0,0,0.05,34.95,0)" xlink:href="#W"/><use transform="matrix(0.05,0,0,0.05,44.95,0)" xlink:href="#aa"/></g><g id="E"><use transform="matrix(0.05,0,0,0.05,0,0)" xlink:href="#af"/><use transform="matrix(0.05,0,0,0.05,14.950000000000001,0)" xlink:href="#Z"/><use transform="matrix(0.05,0,0,0.05,24.950000000000003,0)" xlink:href="#ar"/><use transform="matrix(0.05,0,0,0.05,34.95,0)" xlink:href="#Z"/><use transform="matrix(0.05,0,0,0.05,44.95,0)" xlink:href="#ab"/><use transform="matrix(0.05,0,0,0.05,54.95,0)" xlink:href="#W"/><use transform="matrix(0.05,0,0,0.05,64.95,0)" xlink:href="#af"/><use transform="matrix(0.05,0,0,0.05,79.9,0)" xlink:href="#W"/><use transform="matrix(0.05,0,0,0.05,89.9,0)" xlink:href="#ar"/><use transform="matrix(0.05,0,0,0.05,99.9,0)" xlink:href="#ae"/></g><g id="F"><use transform="matrix(0.05,0,0,0.05,0,0)" xlink:href="#ac"/><use transform="matrix(0.05,0,0,0.05,9,0)" xlink:href="#ad"/><use transform="matrix(0.05,0,0,0.05,18,0)" xlink:href="#ac"/><use transform="matrix(0.05,0,0,0.05,27,0)" xlink:href="#ae"/><use transform="matrix(0.05,0,0,0.05,32,0)" xlink:href="#W"/><use transform="matrix(0.05,0,0,0.05,42,0)" xlink:href="#af"/></g><path d="M101-234c-31-9-42 10-38 44h38v23H63V0H32v-167H5v-23h27c-7-52 17-82 69-68v24" id="aI"/><g id="G"><use transform="matrix(0.05,0,0,0.05,0,0)" xlink:href="#aG"/><use transform="matrix(0.05,0,0,0.05,3.95,0)" xlink:href="#ar"/><use transform="matrix(0.05,0,0,0.05,13.949999999999998,0)" xlink:href="#ae"/><use transform="matrix(0.05,0,0,0.05,18.95,0)" xlink:href="#W"/><use transform="matrix(0.05,0,0,0.05,28.950000000000003,0)" xlink:href="#aa"/><use transform="matrix(0.05,0,0,0.05,34.9,0)" xlink:href="#aI"/><use transform="matrix(0.05,0,0,0.05,39.9,0)" xlink:href="#Z"/><use transform="matrix(0.05,0,0,0.05,49.9,0)" xlink:href="#X"/><use transform="matrix(0.05,0,0,0.05,58.900000000000006,0)" xlink:href="#W"/></g><g id="H"><use transform="matrix(0.05,0,0,0.05,0,0)" xlink:href="#Z"/><use transform="matrix(0.05,0,0,0.05,10,0)" xlink:href="#ar"/><use transform="matrix(0.05,0,0,0.05,20,0)" xlink:href="#aH"/></g><g id="I"><use transform="matrix(0.05,0,0,0.05,0,0)" xlink:href="#X"/><use transform="matrix(0.05,0,0,0.05,9,0)" xlink:href="#aq"/><use transform="matrix(0.05,0,0,0.05,19,0)" xlink:href="#ar"/><use transform="matrix(0.05,0,0,0.05,29,0)" xlink:href="#ae"/><use transform="matrix(0.05,0,0,0.05,34,0)" xlink:href="#aa"/><use transform="matrix(0.05,0,0,0.05,39.95,0)" xlink:href="#aq"/><use transform="matrix(0.05,0,0,0.05,49.95,0)" xlink:href="#ak"/></g><g id="J"><use transform="matrix(0.05,0,0,0.05,0,0)" xlink:href="#ak"/><use transform="matrix(0.05,0,0,0.05,3.95,0)" xlink:href="#aq"/><use transform="matrix(0.05,0,0,0.05,13.949999999999998,0)" xlink:href="#ab"/><use transform="matrix(0.05,0,0,0.05,23.95,0)" xlink:href="#aG"/><use transform="matrix(0.05,0,0,0.05,27.899999999999995,0)" xlink:href="#X"/></g><path d="M33 0v-248h34V0H33" id="aJ"/><g id="K"><use transform="matrix(0.05,0,0,0.05,0,0)" xlink:href="#aJ"/><use transform="matrix(0.034999999999999996,0,0,0.034999999999999996,5,-5.039999999999999)" xlink:href="#at"/><use transform="matrix(0.05,0,0,0.05,12,0)" xlink:href="#am"/></g><g id="L"><use transform="matrix(0.05,0,0,0.05,0,0)" xlink:href="#ac"/><use transform="matrix(0.05,0,0,0.05,9,0)" xlink:href="#W"/><use transform="matrix(0.05,0,0,0.05,19,0)" xlink:href="#ar"/><use transform="matrix(0.05,0,0,0.05,29,0)" xlink:href="#ac"/><use transform="matrix(0.05,0,0,0.05,38,0)" xlink:href="#W"/></g><path d="M27 0v-27h64v-190l-56 39v-29l58-41h29v221h61V0H27" id="aK"/><g id="M"><use transform="matrix(0.05,0,0,0.05,0,0)" xlink:href="#aK"/><use transform="matrix(0.05,0,0,0.05,10,0)" xlink:href="#at"/><use transform="matrix(0.05,0,0,0.05,20,0)" xlink:href="#aj"/></g><path d="M140-251c81 0 123 46 123 126C263-46 219 4 140 4 59 4 17-45 17-125s42-126 123-126zm0 227c63 0 89-41 89-101s-29-99-89-99c-61 0-89 39-89 99S79-25 140-24" id="aL"/><path d="M30 0v-248h33v221h125V0H30" id="aM"/><path d="M30 0v-248h187v28H63v79h144v27H63v87h162V0H30" id="aN"/><g id="N"><use transform="matrix(0.05,0,0,0.05,0,0)" xlink:href="#aL"/><use transform="matrix(0.05,0,0,0.05,14,0)" xlink:href="#aM"/><use transform="matrix(0.05,0,0,0.05,24,0)" xlink:href="#aN"/><use transform="matrix(0.05,0,0,0.05,36,0)" xlink:href="#al"/></g><path d="M115-194c55 1 70 41 70 98S169 2 115 4C84 4 66-9 55-30l1 105H24l-1-265h31l2 30c10-21 28-34 59-34zm-8 174c40 0 45-34 45-75s-6-73-45-74c-42 0-51 32-51 76 0 43 10 73 51 73" id="aO"/><g id="O"><use transform="matrix(0.05,0,0,0.05,0,0)" xlink:href="#ac"/><use transform="matrix(0.05,0,0,0.05,9,0)" xlink:href="#aG"/><use transform="matrix(0.05,0,0,0.05,12.949999999999998,0)" xlink:href="#af"/><use transform="matrix(0.05,0,0,0.05,27.899999999999995,0)" xlink:href="#aO"/><use transform="matrix(0.05,0,0,0.05,37.9,0)" xlink:href="#ak"/><use transform="matrix(0.05,0,0,0.05,41.85,0)" xlink:href="#W"/></g><g id="P"><use transform="matrix(0.05,0,0,0.05,0,0)" xlink:href="#aH"/><use transform="matrix(0.05,0,0,0.05,10,0)" xlink:href="#aG"/><use transform="matrix(0.05,0,0,0.05,13.949999999999998,0)" xlink:href="#ac"/><use transform="matrix(0.05,0,0,0.05,22.95,0)" xlink:href="#aO"/><use transform="matrix(0.05,0,0,0.05,32.95,0)" xlink:href="#ak"/><use transform="matrix(0.05,0,0,0.05,36.900000000000006,0)" xlink:href="#Z"/><use transform="matrix(0.05,0,0,0.05,46.900000000000006,0)" xlink:href="#ad"/></g><g id="Q"><use transform="matrix(0.05,0,0,0.05,0,0)" xlink:href="#aD"/><use transform="matrix(0.05,0,0,0.05,12,0)" xlink:href="#Y"/><use transform="matrix(0.05,0,0,0.05,22,0)" xlink:href="#ah"/><use transform="matrix(0.05,0,0,0.05,32,0)" xlink:href="#ae"/><use transform="matrix(0.05,0,0,0.05,37,0)" xlink:href="#aH"/><use transform="matrix(0.05,0,0,0.05,47,0)" xlink:href="#aq"/><use transform="matrix(0.05,0,0,0.05,57,0)" xlink:href="#aF"/><use transform="matrix(0.05,0,0,0.05,69.95,0)" xlink:href="#ar"/></g><g id="R"><use transform="matrix(0.05,0,0,0.05,0,0)" xlink:href="#ac"/><use transform="matrix(0.05,0,0,0.05,9,0)" xlink:href="#aG"/><use transform="matrix(0.05,0,0,0.05,12.949999999999998,0)" xlink:href="#ab"/><use transform="matrix(0.05,0,0,0.05,22.95,0)" xlink:href="#ar"/><use transform="matrix(0.05,0,0,0.05,32.95,0)" xlink:href="#Z"/><use transform="matrix(0.05,0,0,0.05,42.95,0)" xlink:href="#ak"/></g><g id="S"><use transform="matrix(0.05,0,0,0.05,0,0)" xlink:href="#aM"/><use transform="matrix(0.05,0,0,0.05,10,0)" xlink:href="#aq"/><use transform="matrix(0.05,0,0,0.05,20,0)" xlink:href="#aF"/></g><g id="T"><use transform="matrix(0.05,0,0,0.05,0,0)" xlink:href="#ao"/><use transform="matrix(0.05,0,0,0.05,10,0)" xlink:href="#Z"/><use transform="matrix(0.05,0,0,0.05,20,0)" xlink:href="#ae"/><use transform="matrix(0.05,0,0,0.05,25,0)" xlink:href="#ae"/><use transform="matrix(0.05,0,0,0.05,30,0)" xlink:href="#W"/><use transform="matrix(0.05,0,0,0.05,40,0)" xlink:href="#aa"/><use transform="matrix(0.05,0,0,0.05,45.95,0)" xlink:href="#ad"/></g><g id="U"><use transform="matrix(0.05,0,0,0.05,0,0)" xlink:href="#aG"/><use transform="matrix(0.05,0,0,0.05,3.95,0)" xlink:href="#ar"/><use transform="matrix(0.05,0,0,0.05,13.949999999999998,0)" xlink:href="#aH"/><use transform="matrix(0.05,0,0,0.05,23.95,0)" xlink:href="#aG"/><use transform="matrix(0.05,0,0,0.05,27.899999999999995,0)" xlink:href="#X"/><use transform="matrix(0.05,0,0,0.05,36.9,0)" xlink:href="#Z"/><use transform="matrix(0.05,0,0,0.05,46.9,0)" xlink:href="#ae"/><use transform="matrix(0.05,0,0,0.05,51.900000000000006,0)" xlink:href="#aq"/><use transform="matrix(0.05,0,0,0.05,61.900000000000006,0)" xlink:href="#aa"/></g></defs></g></svg>